<svg width="374" height="11" viewBox="0 0 374 11" fill="none" xmlns="http://www.w3.org/2000/svg">
<path d="M373.893 6.5045C372.548 4.99853 370.03 4.68893 367.328 4.61374C365.979 4.57615 364.582 4.59605 363.262 4.55625C362.601 4.53634 361.962 4.49875 361.354 4.43462C360.746 4.37491 360.173 4.28645 359.648 4.14935C356.066 3.91936 352.478 3.72697 348.885 3.56111C345.292 3.42179 341.697 3.33112 338.107 3.24488C334.516 3.14758 330.925 3.12989 327.345 3.0945C323.765 3.06575 320.192 3.02374 316.633 3.02816C316.638 3.03258 316.642 3.03922 316.644 3.04143C316.33 2.92865 315.938 2.89105 315.635 3.02595C314.861 2.69866 313.979 3.28911 312.829 3.03037C311.945 3.35545 310.062 2.59694 308.917 2.99057C299.154 2.61242 289.07 2.67434 279.2 2.51069C279.2 2.49742 279.205 2.48415 279.207 2.47089C277.959 2.42223 276.672 2.37358 275.35 2.32272C274.028 2.28292 272.676 2.24311 271.303 2.20109C268.556 2.12369 265.727 2.05293 262.904 1.99986C260.081 1.93794 257.264 1.92246 254.544 1.91803C251.823 1.91582 249.198 1.93351 246.757 1.97995C244.07 2.0087 241.149 1.55536 238.618 1.84284C238.369 1.80967 237.974 1.72785 237.776 1.834C237.058 1.8738 236.171 1.60844 235.548 1.77871C233.684 1.56863 231.755 1.41604 229.81 1.30768C227.866 1.20154 225.906 1.15289 223.983 1.13298C223.985 1.14625 223.987 1.15952 223.987 1.17279C221.657 1.15289 219.326 1.05558 217.006 0.960492C215.846 0.916265 214.689 0.872036 213.535 0.827807C212.382 0.794637 211.232 0.772523 210.09 0.770311C206.429 0.715026 202.806 0.50273 199.277 0.606667C199.277 0.577918 199.273 0.551382 199.269 0.522634C196.043 0.527056 192.802 0.34572 189.574 0.206402C186.345 0.0715055 183.13 -0.0235863 179.959 0.210824C179.959 0.197556 179.962 0.184287 179.964 0.171019C175.659 0.270533 171.426 0.20419 167.205 0.162173C162.983 0.131213 158.77 0.122368 154.503 0.323606C149.934 0.951647 145.239 0.865401 140.588 1.05337C139.949 1.30547 135.392 1.07549 134.582 1.16173C134.582 1.14846 134.584 1.13519 134.586 1.12193C130.281 1.13519 125.972 1.25682 121.652 1.38508C121.652 1.41383 121.648 1.44258 121.644 1.46912C115.893 1.51334 110.124 1.53988 104.424 1.54873C101.544 1.58411 98.7569 1.50892 95.968 1.86054C95.3731 1.80083 94.6503 2.07504 94.2196 1.59296C90.8294 1.61949 87.5863 1.47133 84.1962 1.5045V1.54209C73.597 1.76545 62.8038 1.27451 52.3262 1.78977C46.0618 1.58632 39.8358 1.21259 33.5778 1.76987C29.2644 2.05956 24.8955 2.11927 20.6119 2.27407C19.0576 2.48637 17.1898 2.67212 15.6439 2.52838C15.0533 2.44214 14.516 2.62568 13.9552 2.69203C12.8507 2.56819 11.3475 2.56155 10.1109 2.63895C9.01918 2.71193 8.11087 3.19402 6.98933 3.19844C3.31342 3.42622 1.61406 4.69114 0.10447 6.74112C-0.737748 7.83798 3.42643 8.20507 8.09381 8.3267C12.7612 8.44612 17.9254 8.31343 19.0661 8.35987C23.177 8.33334 27.3134 8.19402 31.3944 8.10998C33.9339 8.18738 36.693 7.95518 39.3156 7.97951C39.9211 7.96624 41.0128 7.94413 41.6311 7.93307C41.6354 7.96182 41.6375 7.99057 41.6397 8.0171C53.6802 7.74289 65.6716 7.35368 77.6951 6.83179C79.3603 6.76987 81.0576 6.88707 82.7143 6.8915C85.597 6.86717 88.4669 6.52882 91.3966 6.5443L91.3774 6.58411C91.7697 6.75439 92.2409 6.71679 92.6738 6.64161C93.4755 6.47133 94.3987 6.71679 95.1514 6.45585C95.3561 6.5244 95.629 6.53104 95.8145 6.42931C100.516 6.79862 105.328 6.74112 110.203 6.6018C115.077 6.47133 120.013 6.25019 124.957 6.30326C124.864 6.2922 124.78 6.27009 124.738 6.19711C128.791 6.18163 132.855 6.16615 136.908 6.15067L136.915 6.23471C136.731 6.23471 134.422 6.23471 134.313 6.26567C139.096 6.41162 143.893 6.18827 148.68 6.29663C148.678 6.28336 148.676 6.27009 148.676 6.25682L161.224 6.26346L161.205 6.21923C161.533 6.11529 161.855 6.06443 162.158 6.24355C162.162 6.23471 162.171 6.23028 162.179 6.22365V6.21923C162.574 6.05337 163.405 6.01135 163.742 6.25461C164.337 5.98482 165.429 5.99809 165.849 6.27009C166.968 6.25903 168.058 6.23471 169.156 6.25903C169.062 6.25019 168.979 6.22144 168.908 6.1551C169.373 6.1551 169.838 6.1551 170.301 6.1551C170.217 6.24355 170.094 6.25682 169.966 6.26124C171.763 6.06443 173.446 6.03789 175.305 6.02905L175.284 6.05779C182.431 6.21259 190.143 6.26346 197.478 6.37403C197.478 6.36076 197.475 6.34749 197.473 6.33422C219.162 6.35633 241.516 7.34705 263.06 7.13475C273.497 7.07283 283.953 7.04851 294.405 7.5704C296.889 7.6876 299.388 7.6876 301.881 7.7053C303.126 7.71635 304.371 7.72741 305.61 7.76721C306.849 7.81144 308.083 7.88 309.309 7.98393C311.087 7.80702 313.094 8.16969 314.94 7.98836C315.548 7.94413 316.111 8.31564 316.68 8.19844C317.062 8.32449 317.721 8.34218 318.009 8.14537C332.019 8.6164 346.23 9.18694 360.192 10.0339C363.881 10.3678 364.84 8.3643 366.382 8.67389C368.23 8.94368 370.132 9.29309 371.891 8.80437C372.795 8.20286 374.416 7.53723 373.893 6.50671V6.5045Z" fill="#FFAB9E"/>
</svg>
