<svg width="25" height="25" viewBox="0 0 25 25" fill="none" xmlns="http://www.w3.org/2000/svg">
<g id="Layer_1" clip-path="url(#clip0_237_3203)">
<path id="Vector" d="M24.6194 12.4453C24.6194 18.2258 20.5316 23.0505 15.0905 24.1917C14.2936 24.3563 13.4659 24.4453 12.6194 24.4453C5.9924 24.4453 0.619385 19.0723 0.619385 12.4453C0.619385 5.81833 5.9924 0.445312 12.6194 0.445312C19.2464 0.445312 24.374 5.57292 24.6116 11.9935C24.6169 12.1425 24.6194 12.2939 24.6194 12.4453Z" fill="#4FB800"/>
<path id="Vector_2" d="M20.1901 7.57303C19.4252 6.80809 18.1847 6.80809 17.4198 7.57303L10.7151 14.2777L7.88658 11.4491C7.12164 10.6839 5.88115 10.6839 5.11621 11.4491C4.35091 12.2141 4.35091 13.4546 5.11621 14.2195L9.32993 18.4336C9.69733 18.801 10.1956 19.0074 10.7151 19.0074C11.2347 19.0074 11.7329 18.801 12.1003 18.4336L20.1901 10.3434C20.9554 9.57847 20.9554 8.33797 20.1901 7.57303Z" fill="white"/>
</g>
<defs>
<clipPath id="clip0_237_3203">
<rect width="24" height="24" fill="white" transform="translate(0.619385 0.445312)"/>
</clipPath>
</defs>
</svg>
