<svg width="279" height="48" viewBox="0 0 279 48" fill="none" xmlns="http://www.w3.org/2000/svg">
<path d="M22.2631 10.6244C19.3256 10.6244 17.034 11.8327 15.3881 14.2494C13.7423 16.6452 12.9194 19.9577 12.9194 24.1869C12.9194 32.9786 16.2631 37.3744 22.9506 37.3744C24.9715 37.3744 26.9298 37.0931 28.8256 36.5306C30.7215 35.9681 32.6277 35.2911 34.5444 34.4994V44.9369C30.7319 46.6244 26.4194 47.4681 21.6069 47.4681C14.711 47.4681 9.41937 45.4681 5.73187 41.4681C2.06521 37.4681 0.231873 31.6869 0.231873 24.1244C0.231873 19.3952 1.11729 15.239 2.88812 11.6556C4.67979 8.07231 7.24229 5.32231 10.5756 3.40564C13.9298 1.46814 17.8673 0.49939 22.3881 0.49939C27.3256 0.49939 32.0444 1.57231 36.5444 3.71814L32.7631 13.4369C31.0756 12.6452 29.3881 11.9786 27.7006 11.4369C26.0131 10.8952 24.2006 10.6244 22.2631 10.6244ZM41.7631 46.8431V23.9994H47.9662V46.8431H41.7631ZM67.2319 46.8431H53.6694V23.9994H67.2319V28.9525H59.8412V32.5463H66.685V37.4994H59.8412V41.8119H67.2319V46.8431Z" fill="#59BF98"/>
<path d="M93.0834 30.6556C93.0834 32.9681 92.2918 34.7494 90.7084 35.9994C89.1355 37.239 86.8803 37.8588 83.9428 37.8588H81.2553V46.8431H78.5991V23.9994H84.5209C90.2293 23.9994 93.0834 26.2181 93.0834 30.6556ZM81.2553 35.5775H83.6459C86.0001 35.5775 87.7032 35.1973 88.7553 34.4369C89.8074 33.6765 90.3334 32.4577 90.3334 30.7806C90.3334 29.2702 89.8386 28.1452 88.8491 27.4056C87.8595 26.6661 86.3178 26.2963 84.2241 26.2963H81.2553V35.5775ZM112.99 46.8431L110.146 39.5775H100.99L98.1772 46.8431H95.4897L104.521 23.9056H106.755L115.74 46.8431H112.99ZM109.318 37.1869L106.662 30.1088C106.318 29.2129 105.964 28.114 105.599 26.8119C105.37 27.8119 105.042 28.9108 104.615 30.1088L101.927 37.1869H109.318ZM132.521 40.765C132.521 42.7754 131.792 44.3431 130.333 45.4681C128.875 46.5931 126.896 47.1556 124.396 47.1556C121.688 47.1556 119.604 46.8067 118.146 46.1088V43.5463C119.083 43.9421 120.104 44.2546 121.208 44.4838C122.313 44.7129 123.406 44.8275 124.49 44.8275C126.261 44.8275 127.594 44.4942 128.49 43.8275C129.386 43.1504 129.833 42.2129 129.833 41.015C129.833 40.2233 129.672 39.5775 129.349 39.0775C129.037 38.5671 128.505 38.0983 127.755 37.6713C127.016 37.2442 125.886 36.7598 124.365 36.2181C122.24 35.4577 120.719 34.5567 119.802 33.515C118.896 32.4733 118.443 31.114 118.443 29.4369C118.443 27.6765 119.104 26.2754 120.427 25.2338C121.75 24.1921 123.5 23.6713 125.677 23.6713C127.948 23.6713 130.037 24.0879 131.943 24.9213L131.115 27.2338C129.229 26.4421 127.396 26.0463 125.615 26.0463C124.208 26.0463 123.109 26.3483 122.318 26.9525C121.526 27.5567 121.13 28.3952 121.13 29.4681C121.13 30.2598 121.276 30.9108 121.568 31.4213C121.859 31.9213 122.349 32.3848 123.037 32.8119C123.734 33.2286 124.797 33.6921 126.224 34.2025C128.62 35.0567 130.266 35.9733 131.162 36.9525C132.068 37.9317 132.521 39.2025 132.521 40.765ZM144.974 46.8431H142.318V26.3588H135.083V23.9994H152.208V26.3588H144.974V46.8431ZM179.958 30.6556C179.958 32.9681 179.167 34.7494 177.583 35.9994C176.011 37.239 173.755 37.8588 170.818 37.8588H168.13V46.8431H165.474V23.9994H171.396C177.104 23.9994 179.958 26.2181 179.958 30.6556ZM168.13 35.5775H170.521C172.875 35.5775 174.578 35.1973 175.63 34.4369C176.682 33.6765 177.208 32.4577 177.208 30.7806C177.208 29.2702 176.714 28.1452 175.724 27.4056C174.734 26.6661 173.193 26.2963 171.099 26.2963H168.13V35.5775ZM199.865 46.8431L197.021 39.5775H187.865L185.052 46.8431H182.365L191.396 23.9056H193.63L202.615 46.8431H199.865ZM196.193 37.1869L193.537 30.1088C193.193 29.2129 192.839 28.114 192.474 26.8119C192.245 27.8119 191.917 28.9108 191.49 30.1088L188.802 37.1869H196.193ZM220.99 30.6556C220.99 32.9681 220.198 34.7494 218.615 35.9994C217.042 37.239 214.787 37.8588 211.849 37.8588H209.162V46.8431H206.505V23.9994H212.427C218.136 23.9994 220.99 26.2181 220.99 30.6556ZM209.162 35.5775H211.552C213.906 35.5775 215.609 35.1973 216.662 34.4369C217.714 33.6765 218.24 32.4577 218.24 30.7806C218.24 29.2702 217.745 28.1452 216.755 27.4056C215.766 26.6661 214.224 26.2963 212.13 26.2963H209.162V35.5775ZM239.271 46.8431H226.537V23.9994H239.271V26.3588H229.193V33.7181H238.662V36.0619H229.193V44.4681H239.271V46.8431ZM247.755 37.3431V46.8431H245.099V23.9994H251.365C254.167 23.9994 256.234 24.5358 257.568 25.6088C258.912 26.6817 259.583 28.2963 259.583 30.4525C259.583 33.4733 258.052 35.515 254.99 36.5775L261.193 46.8431H258.052L252.521 37.3431H247.755ZM247.755 35.0619H251.396C253.271 35.0619 254.646 34.6921 255.521 33.9525C256.396 33.2025 256.833 32.0827 256.833 30.5931C256.833 29.0827 256.386 27.9942 255.49 27.3275C254.604 26.6608 253.177 26.3275 251.208 26.3275H247.755V35.0619ZM278.521 40.765C278.521 42.7754 277.792 44.3431 276.333 45.4681C274.875 46.5931 272.896 47.1556 270.396 47.1556C267.688 47.1556 265.604 46.8067 264.146 46.1088V43.5463C265.083 43.9421 266.104 44.2546 267.208 44.4838C268.313 44.7129 269.406 44.8275 270.49 44.8275C272.261 44.8275 273.594 44.4942 274.49 43.8275C275.386 43.1504 275.833 42.2129 275.833 41.015C275.833 40.2233 275.672 39.5775 275.349 39.0775C275.037 38.5671 274.505 38.0983 273.755 37.6713C273.016 37.2442 271.886 36.7598 270.365 36.2181C268.24 35.4577 266.719 34.5567 265.802 33.515C264.896 32.4733 264.443 31.114 264.443 29.4369C264.443 27.6765 265.104 26.2754 266.427 25.2338C267.75 24.1921 269.5 23.6713 271.677 23.6713C273.948 23.6713 276.037 24.0879 277.943 24.9213L277.115 27.2338C275.229 26.4421 273.396 26.0463 271.615 26.0463C270.208 26.0463 269.109 26.3483 268.318 26.9525C267.526 27.5567 267.13 28.3952 267.13 29.4681C267.13 30.2598 267.276 30.9108 267.568 31.4213C267.859 31.9213 268.349 32.3848 269.037 32.8119C269.734 33.2286 270.797 33.6921 272.224 34.2025C274.62 35.0567 276.266 35.9733 277.162 36.9525C278.068 37.9317 278.521 39.2025 278.521 40.765Z" fill="#A0A0A0"/>
</svg>
