<svg width="247" height="108" viewBox="0 0 247 108" fill="none" xmlns="http://www.w3.org/2000/svg">
<g id="Clip path group">
<mask id="mask0_2001_63" style="mask-type:luminance" maskUnits="userSpaceOnUse" x="0" y="0" width="247" height="108">
<g id="a">
<path id="Vector" d="M246.338 0.128906H0.411804V107.512H246.338V0.128906Z" fill="white"/>
</g>
</mask>
<g mask="url(#mask0_2001_63)">
<g id="Group">
<g id="Clip path group_2">
<mask id="mask1_2001_63" style="mask-type:luminance" maskUnits="userSpaceOnUse" x="0" y="0" width="247" height="108">
<g id="b">
<path id="Vector_2" d="M246.338 0.128906H0.411804V107.512H246.338V0.128906Z" fill="white"/>
</g>
</mask>
<g mask="url(#mask1_2001_63)">
<g id="Group_2">
<path id="Vector_3" d="M0.411804 98.0963C0.411804 96.7768 0.890994 95.665 1.84688 94.7634C2.80276 93.8621 3.90589 93.4088 5.15126 93.4088C6.21197 93.4088 7.11295 93.659 7.85171 94.1598C11.4506 96.5988 15.3964 97.8183 19.6867 97.8183C22.3172 97.8183 24.3413 97.3051 25.7589 96.281C27.179 95.2568 27.8878 94.0173 27.8878 92.5648C27.8878 91.6885 27.5783 90.9223 26.9618 90.2663C26.3429 89.6103 25.5143 89.0743 24.4735 88.6586C23.4328 88.243 22.2298 87.8573 20.8696 87.4993C19.5095 87.1411 18.0869 86.7655 16.6019 86.3749C15.1169 85.9842 13.6169 85.5886 12.0995 85.1881C10.5821 84.7873 9.14203 84.2266 7.78181 83.5002C6.41913 82.7766 5.21367 81.9302 4.16544 80.9638C3.11472 79.9973 2.27863 78.7652 1.65721 77.2702C1.03325 75.7755 0.72128 74.0826 0.72128 72.1973C0.72128 68.1031 2.35352 64.665 5.618 61.8854C8.88245 59.1061 13.2251 57.7163 18.6459 57.7163C21.6908 57.7163 24.8529 58.1844 28.1274 59.1209C31.4043 60.0574 33.653 61.3571 34.8759 63.0197C35.4526 63.7461 35.7419 64.5647 35.7419 65.4787C35.7419 66.7735 35.2202 67.8526 34.1796 68.7215C33.1387 69.588 31.9709 70.0212 30.6755 70.0212C29.8421 70.0212 28.9984 69.7808 28.1423 69.2948C24.9502 67.4996 21.4686 66.6032 17.6975 66.6032C15.5686 66.6032 13.9089 67.0312 12.7185 67.8853C11.5255 68.7416 10.9315 69.8858 10.9315 71.3231C10.9315 72.1895 11.3308 72.9483 12.127 73.5994C12.9231 74.248 13.9664 74.7411 15.2517 75.0744C16.537 75.4073 17.9945 75.7853 19.6242 76.2087C21.2565 76.6317 22.9087 77.06 24.5859 77.4957C26.263 77.929 27.9102 78.5224 29.5301 79.2734C31.1498 80.0248 32.5974 80.8913 33.875 81.8753C35.1504 82.8593 36.1738 84.1714 36.9451 85.8114C37.716 87.4543 38.1006 89.3273 38.1006 91.4305C38.1006 95.9779 36.4907 99.6614 33.2737 102.478C30.0542 105.298 25.367 106.705 19.205 106.705C15.5362 106.705 11.9248 106.137 8.37332 105.005C4.81932 103.871 2.4209 102.366 1.17551 100.49C0.668871 99.774 0.4143 98.9751 0.4143 98.0938" fill="#57CF92"/>
<path id="Vector_4" d="M39.6625 90.1087C39.2706 84.8704 40.6435 80.443 43.7855 76.8275C46.9278 73.2141 51.1331 71.206 56.4015 70.8101C59.0695 70.6098 61.5404 70.8526 63.814 71.5389C66.0876 72.2273 67.6425 73.2465 68.4863 74.5987C68.798 75.0622 68.9778 75.6053 69.0252 76.2289C69.11 77.3607 68.7408 78.3099 67.9197 79.081C67.0986 79.8521 66.1475 80.2755 65.067 80.3582C64.1909 80.4233 63.3575 80.2554 62.5662 79.8497C60.9988 79.0159 59.2844 78.6703 57.4224 78.8107C54.6846 79.0159 52.5257 80.0978 50.9508 82.0482C49.3735 84.0015 48.6948 86.4553 48.9167 89.4101C49.139 92.3875 50.1771 94.7361 52.0289 96.4514C53.881 98.1692 56.1746 98.9231 58.9124 98.7176C60.7768 98.5775 62.4414 97.9514 63.909 96.8445C64.6326 96.3261 65.4088 96.0358 66.2376 95.9731C67.3879 95.8855 68.4214 96.1734 69.3396 96.8371C70.2557 97.4981 70.7574 98.397 70.8423 99.5263C70.9345 100.774 70.5352 101.778 69.6443 102.541C66.9388 105.043 63.4248 106.457 59.0996 106.783C53.8309 107.181 49.3735 105.817 45.7271 102.692C42.0809 99.5665 40.0569 95.3724 39.6625 90.1087Z" fill="#57CF92"/>
<path id="Vector_5" d="M72.5465 102.566L70.8545 63.2278C70.8019 62.0034 71.1939 60.9416 72.035 60.0476C72.8736 59.1537 73.9492 58.6779 75.2646 58.623C76.4626 58.5702 77.5133 58.9534 78.414 59.7724C79.315 60.591 79.7918 61.6127 79.8443 62.8371L80.4281 76.4016C81.5861 74.8689 83.1911 73.5368 85.2452 72.405C87.299 71.2732 89.6276 70.6523 92.2307 70.5397C95.9196 70.3792 98.7373 71.208 100.684 73.0237C102.633 74.839 103.681 77.4582 103.829 80.8811L104.699 101.174C104.754 102.423 104.36 103.5 103.521 104.404C102.683 105.308 101.63 105.789 100.362 105.844C99.1166 105.899 98.0435 105.511 97.1425 104.679C96.2414 103.851 95.7622 102.809 95.7099 101.562L94.986 84.7374C94.8889 82.4712 94.2722 80.8889 93.1366 79.9872C92.0011 79.0859 90.3964 78.6801 88.3223 78.7702C86.7075 78.8406 85.2452 79.2911 83.9298 80.1251C82.6144 80.9589 81.5437 81.9605 80.7177 83.1297L81.5363 102.173C81.5889 103.423 81.1969 104.499 80.3583 105.403C79.5197 106.31 78.4665 106.788 77.1988 106.843C75.9532 106.898 74.88 106.51 73.979 105.679C73.0783 104.85 72.5991 103.81 72.5465 102.561" fill="#57CF92"/>
<path id="Vector_6" d="M105.818 90.1707C105.558 86.8955 106.03 83.8558 107.228 81.0561C108.426 78.2567 110.342 75.9206 112.975 74.0525C115.608 72.1844 118.738 71.1053 122.362 70.8171C126.008 70.5267 129.285 71.0976 132.19 72.5275C135.095 73.9571 137.359 75.9604 138.981 78.5372C140.603 81.1138 141.544 84.0409 141.804 87.3161C141.996 89.7628 141.762 92.1088 141.095 94.3552C140.431 96.6013 139.411 98.6095 138.04 100.38C136.668 102.15 134.873 103.605 132.654 104.744C130.438 105.884 127.952 106.562 125.2 106.783C121.576 107.071 118.316 106.5 115.424 105.07C112.531 103.64 110.27 101.624 108.648 99.0252C107.023 96.4261 106.082 93.4761 105.82 90.1759M115.067 89.4422C115.289 92.2591 116.252 94.5678 117.962 96.3708C119.669 98.1738 121.873 98.9699 124.568 98.7545C127.264 98.5395 129.325 97.4076 130.753 95.3541C132.178 93.3033 132.782 90.8696 132.56 88.0523C132.34 85.2604 131.364 82.9742 129.637 81.1965C127.907 79.4185 125.696 78.6347 123.001 78.8501C120.305 79.0655 118.254 80.1847 116.849 82.2129C115.444 84.2412 114.85 86.6502 115.072 89.4422" fill="#57CF92"/>
<path id="Vector_7" d="M143.799 85.2459C144.423 82.0183 145.685 79.2189 147.585 76.8398C149.484 74.4635 151.955 72.7259 154.99 71.6314C158.025 70.5372 161.326 70.337 164.895 71.0307C168.487 71.7293 171.492 73.1592 173.91 75.3152C176.328 77.4708 177.976 80.0101 178.852 82.9273C179.728 85.8446 179.855 88.917 179.231 92.1447C178.764 94.5534 177.913 96.7519 176.673 98.7376C175.433 100.726 173.918 102.386 172.123 103.723C170.329 105.061 168.212 105.979 165.771 106.483C163.331 106.986 160.755 106.973 158.047 106.448C154.478 105.754 151.491 104.329 149.082 102.173C146.676 100.02 145.034 97.4706 144.163 94.5308C143.29 91.5911 143.17 88.4961 143.799 85.2459ZM152.901 87.019C152.364 89.7909 152.679 92.2749 153.844 94.471C155.01 96.6668 156.919 98.0217 159.574 98.5398C162.23 99.0557 164.518 98.5173 166.438 96.9223C168.36 95.3273 169.587 93.1438 170.124 90.3719C170.656 87.6222 170.324 85.1583 169.133 82.9822C167.94 80.8037 166.019 79.4593 163.363 78.9409C160.708 78.425 158.434 78.9532 156.54 80.531C154.645 82.1084 153.432 84.2721 152.901 87.019Z" fill="#57CF92"/>
<path id="Vector_8" d="M180.025 102.684L183.038 63.4256C183.132 62.2037 183.649 61.1968 184.587 60.4106C185.526 59.6244 186.652 59.2812 187.964 59.384C189.16 59.4765 190.158 59.9826 190.954 60.904C191.75 61.8254 192.102 62.8971 192.01 64.119L188.997 103.377C188.903 104.624 188.383 105.646 187.442 106.445C186.502 107.244 185.399 107.591 184.136 107.494C182.893 107.399 181.874 106.885 181.078 105.951C180.282 105.02 179.93 103.931 180.025 102.684Z" fill="#57CF92"/>
<path id="Vector_9" d="M0.411804 47.1422V7.10771C0.411804 5.68291 0.935919 4.46097 1.98414 3.44432C3.03237 2.43019 4.29025 1.92188 5.76273 1.92188C7.23524 1.92188 8.40077 2.43019 9.41156 3.44432C10.4248 4.45847 10.929 5.68041 10.929 7.10771V21.8314H34.242V7.10771C34.242 5.68291 34.7637 4.46097 35.8043 3.44432C36.8451 2.43019 38.1178 1.92188 39.6253 1.92188C41.0379 1.92188 42.246 2.43019 43.2518 3.44432C44.2577 4.45847 44.759 5.68041 44.759 7.10771V47.0694C44.759 48.5194 44.2451 49.7589 43.2168 50.7855C42.1885 51.8146 40.9432 52.3281 39.483 52.3281C38.0231 52.3281 36.815 51.8146 35.7867 50.7855C34.7588 49.7589 34.2445 48.5194 34.2445 47.0694V31.1138H10.929V47.1422C10.929 48.5694 10.4099 49.7889 9.37412 50.8056C8.33837 51.8196 7.0855 52.3281 5.61548 52.3281C4.14549 52.3281 2.96996 51.8146 1.9467 50.7855C0.920941 49.7589 0.411804 48.5444 0.411804 47.1422Z" fill="#F8D136"/>
<path id="Vector_10" d="M87.6362 47.545L87.6085 20.0934C87.6085 18.8114 88.0629 17.7246 88.9786 16.8281C89.8922 15.9342 91.0376 15.4835 92.4105 15.4835C93.6632 15.4835 94.7416 15.9342 95.6451 16.8407C96.551 17.7471 97.0026 18.8289 97.0026 20.0859V20.5942C97.8938 19.2871 99.4462 18.0301 101.662 16.8181C103.879 15.6062 106.227 15.0002 108.708 14.9977C111.259 14.9977 113.365 15.5611 115.022 16.6954C116.679 17.8298 117.845 19.4374 118.514 21.5132C119.622 19.7478 121.304 18.2154 123.563 16.9208C125.819 15.6262 128.24 14.9752 130.823 14.9727C134.15 14.9702 136.723 15.8741 138.545 17.6845C140.367 19.4949 141.278 22.2018 141.283 25.8051L141.305 47.4901C141.305 48.7947 140.853 49.9013 139.945 50.8103C139.037 51.7169 137.903 52.1726 136.541 52.1751C135.251 52.1751 134.155 51.7243 133.256 50.8177C132.358 49.9114 131.909 48.8071 131.909 47.4999L131.889 29.0779C131.889 27.3125 131.449 25.9228 130.581 24.9087C129.71 23.8945 128.357 23.3887 126.52 23.3912C124.998 23.3912 123.58 23.8044 122.262 24.6282C120.947 25.452 119.901 26.4211 119.13 27.5329L119.15 47.5151C119.15 48.8197 118.694 49.9265 117.777 50.8353C116.861 51.7419 115.723 52.1976 114.366 52.1976C113.078 52.1976 111.99 51.7468 111.094 50.8405C110.2 49.934 109.754 48.8296 109.751 47.5249L109.731 29.1029C109.726 25.3068 107.954 23.4112 104.413 23.4163C102.92 23.4163 101.51 23.8369 100.185 24.6708C98.8596 25.5071 97.8012 26.4937 97.0078 27.6305L97.0302 47.5376C97.0302 48.8422 96.5759 49.9491 95.6598 50.8578C94.7441 51.7644 93.6233 52.2202 92.3008 52.2202C91.0005 52.2202 89.8972 51.7693 88.9912 50.8631C88.0853 49.9565 87.6334 48.8521 87.631 47.545" fill="#F8D136"/>
<path id="Vector_11" d="M144.261 36.7753C143.667 33.3699 143.889 30.1297 144.93 27.0497C145.971 23.9698 147.745 21.3581 150.256 19.2096C152.767 17.0637 155.767 15.6814 159.258 15.068C163.197 14.3768 166.795 14.8426 170.052 16.4652C173.307 18.0903 175.888 20.6369 177.79 24.105C178.865 26.1984 179.522 27.9236 179.759 29.2808C179.958 30.4252 179.709 31.487 179.012 32.4685C178.313 33.4501 177.373 34.046 176.187 34.2539L154.472 38.0725C155.19 40.3763 156.583 42.149 158.65 43.3935C160.713 44.638 163.182 45.0086 166.054 44.5028C168.453 44.0822 170.629 43.0982 172.583 41.5507C173.145 41.1323 173.724 40.8719 174.318 40.767C175.339 40.5864 176.314 40.7895 177.25 41.3752C178.184 41.9611 178.743 42.7776 178.925 43.8243C179.095 44.8009 178.77 45.7723 177.949 46.739C177.128 47.7055 176.02 48.5393 174.625 49.2379C173.23 49.9365 171.81 50.5302 170.367 51.0183C168.922 51.504 167.572 51.8598 166.314 52.0801C160.878 53.0367 156.089 52.1174 151.943 49.323C147.798 46.5311 145.239 42.3468 144.266 36.7753M153.234 31.8125L170.572 28.765C170.364 27.8685 170.015 27.0172 169.519 26.2059C169.022 25.3971 168.378 24.6509 167.587 23.9673C166.796 23.2837 165.787 22.8004 164.562 22.5124C163.339 22.2245 162.001 22.2069 160.554 22.4623C159.176 22.7053 157.978 23.161 156.96 23.8321C155.939 24.5031 155.165 25.2894 154.639 26.1908C154.112 27.0923 153.735 28.0188 153.508 28.9653C153.281 29.9143 153.191 30.8609 153.234 31.8125Z" fill="#F8D136"/>
<path id="Vector_12" d="M47.4697 34.6891C47.2001 31.2812 47.6895 28.1186 48.9373 25.2064C50.1826 22.2942 52.1768 19.8654 54.9173 17.9197C57.6575 15.9766 60.9121 14.8523 64.6806 14.5543C68.4743 14.2538 71.8834 14.8473 74.9059 16.3321C77.9283 17.8196 80.2818 19.9029 81.9713 22.5822C83.6584 25.264 84.6368 28.3064 84.9064 31.7169C85.1059 34.2611 84.8615 36.7025 84.1702 39.0412C83.4788 41.3801 82.418 43.4682 80.9904 45.3089C79.5631 47.1492 77.6962 48.6643 75.3876 49.8486C73.0814 51.0332 70.4958 51.7416 67.6332 51.9669C63.8619 52.2675 60.4728 51.6716 57.4629 50.1843C54.4531 48.6967 52.1021 46.6008 50.4122 43.8965C48.7227 41.1922 47.7418 38.1247 47.4722 34.6918M57.091 33.9281C57.3231 36.8577 58.3264 39.259 60.1033 41.1345C61.8804 43.01 64.1715 43.8364 66.9769 43.6136C69.782 43.3908 71.9258 42.2114 73.4109 40.078C74.8932 37.9445 75.5222 35.413 75.2901 32.4831C75.0605 29.5785 74.0473 27.2022 72.2477 25.3517C70.4484 23.5012 68.1472 22.6874 65.3421 22.9102C62.5367 23.1331 60.403 24.3 58.9403 26.4084C57.4777 28.5168 56.8613 31.0257 57.091 33.9281Z" fill="#F8D136"/>
<path id="Vector_13" d="M210.484 98.7801C210.092 98.6274 209.668 98.5472 209.221 98.5472C208.667 98.5472 208.205 98.6876 207.838 98.9579C207.471 99.2334 207.289 99.6139 207.289 100.105C207.289 100.568 207.471 100.936 207.843 101.211C208.213 101.482 208.677 101.617 209.221 101.617C209.67 101.617 210.092 101.54 210.484 101.384C210.871 101.231 211.177 101.009 211.39 100.716V99.4436C211.175 99.1507 210.871 98.9329 210.484 98.7801ZM210.484 98.7801C210.092 98.6274 209.668 98.5472 209.221 98.5472C208.667 98.5472 208.205 98.6876 207.838 98.9579C207.471 99.2334 207.289 99.6139 207.289 100.105C207.289 100.568 207.471 100.936 207.843 101.211C208.213 101.482 208.677 101.617 209.221 101.617C209.67 101.617 210.092 101.54 210.484 101.384C210.871 101.231 211.177 101.009 211.39 100.716V99.4436C211.175 99.1507 210.871 98.9329 210.484 98.7801ZM210.484 98.7801C210.092 98.6274 209.668 98.5472 209.221 98.5472C208.667 98.5472 208.205 98.6876 207.838 98.9579C207.471 99.2334 207.289 99.6139 207.289 100.105C207.289 100.568 207.471 100.936 207.843 101.211C208.213 101.482 208.677 101.617 209.221 101.617C209.67 101.617 210.092 101.54 210.484 101.384C210.871 101.231 211.177 101.009 211.39 100.716V99.4436C211.175 99.1507 210.871 98.9329 210.484 98.7801ZM210.484 98.7801C210.092 98.6274 209.668 98.5472 209.221 98.5472C208.667 98.5472 208.205 98.6876 207.838 98.9579C207.471 99.2334 207.289 99.6139 207.289 100.105C207.289 100.568 207.471 100.936 207.843 101.211C208.213 101.482 208.677 101.617 209.221 101.617C209.67 101.617 210.092 101.54 210.484 101.384C210.871 101.231 211.177 101.009 211.39 100.716V99.4436C211.175 99.1507 210.871 98.9329 210.484 98.7801ZM241.691 85.897H198.876C196.47 85.897 194.518 87.8552 194.518 90.2688V101.752C194.518 104.166 196.47 106.124 198.876 106.124H241.691C244.097 106.124 246.049 104.166 246.049 101.752V90.2688C246.049 87.8552 244.097 85.897 241.691 85.897ZM202.228 102.942C201.908 103.265 201.531 103.423 201.09 103.423C200.648 103.423 200.266 103.265 199.947 102.942C199.627 102.624 199.472 102.243 199.472 101.81C199.472 101.377 199.63 100.996 199.947 100.673C200.264 100.353 200.648 100.192 201.09 100.192C201.531 100.192 201.908 100.355 202.228 100.673C202.547 100.996 202.707 101.372 202.707 101.81C202.707 102.248 202.545 102.624 202.228 102.942ZM214.088 101.968C214.088 102.343 213.958 102.664 213.703 102.922C213.446 103.18 213.137 103.31 212.77 103.31H212.56C212.485 103.31 212.39 103.297 212.281 103.265C212.169 103.23 212.046 103.177 211.901 103.102C211.762 103.027 211.639 102.904 211.54 102.734C211.44 102.564 211.387 102.363 211.387 102.131C211.035 102.541 210.571 102.864 210.002 103.097C209.43 103.33 208.807 103.443 208.138 103.443C207.718 103.443 207.304 103.367 206.895 103.225C206.485 103.079 206.106 102.874 205.757 102.604C205.405 102.333 205.125 101.975 204.911 101.527C204.696 101.081 204.589 100.583 204.589 100.034C204.589 99.5713 204.664 99.1507 204.803 98.7699C204.943 98.3895 205.135 98.0741 205.37 97.826C205.604 97.5758 205.879 97.3678 206.189 97.1975C206.498 97.0271 206.815 96.9046 207.142 96.8293C207.469 96.7519 207.801 96.7167 208.135 96.7167C208.819 96.7167 209.45 96.8219 210.022 97.0398C210.594 97.2576 211.045 97.5656 211.387 97.9664V96.5791C211.387 96.0582 211.183 95.6376 210.773 95.3244C210.364 95.0091 209.82 94.8514 209.138 94.8514C208.285 94.8514 207.521 95.0742 206.85 95.5148C206.685 95.6099 206.523 95.6602 206.361 95.6602C206.099 95.6602 205.864 95.5648 205.649 95.372C205.44 95.1794 205.335 94.9264 205.335 94.6234C205.335 94.4481 205.387 94.2728 205.487 94.0902C205.772 93.6344 206.346 93.2761 207.209 93.0182C208.073 92.7655 208.869 92.6328 209.603 92.6328C210.217 92.6328 210.783 92.7028 211.295 92.833C211.804 92.9633 212.276 93.1737 212.712 93.4665C213.144 93.7544 213.479 94.1627 213.718 94.6835C213.963 95.2044 214.085 95.8203 214.085 96.534V101.96L214.088 101.968ZM223.694 102.518C222.905 103.135 221.82 103.445 220.434 103.445C219.671 103.445 218.875 103.322 218.034 103.082C217.197 102.837 216.633 102.506 216.346 102.086C216.219 101.92 216.159 101.722 216.159 101.5C216.159 101.189 216.272 100.926 216.499 100.708C216.726 100.49 216.978 100.38 217.265 100.38C217.479 100.38 217.657 100.428 217.809 100.528C218.762 101.079 219.688 101.354 220.567 101.354C221.133 101.354 221.565 101.254 221.857 101.049C222.149 100.844 222.294 100.575 222.294 100.24C222.294 100.012 222.184 99.8243 221.967 99.679C221.752 99.534 221.475 99.4161 221.131 99.3334C220.786 99.2458 220.402 99.1683 219.988 99.1007C219.573 99.0304 219.134 98.9202 218.667 98.7727C218.206 98.62 217.791 98.4395 217.434 98.2269C217.073 98.0115 216.781 97.706 216.558 97.3129C216.331 96.9145 216.219 96.4464 216.219 95.9005C216.219 94.9915 216.598 94.2179 217.352 93.5869C218.101 92.9583 219.127 92.6377 220.422 92.6377C221.158 92.6377 221.9 92.7553 222.646 92.9882C223.387 93.2212 223.891 93.5267 224.163 93.9096C224.273 94.0624 224.328 94.2429 224.328 94.4481C224.328 94.7311 224.218 94.9739 224.006 95.1742C223.789 95.3747 223.544 95.4772 223.265 95.4772C223.085 95.4772 222.915 95.4346 222.755 95.342C222.059 94.9366 221.283 94.7311 220.419 94.7311C219.94 94.7311 219.551 94.8261 219.252 95.019C218.955 95.2118 218.807 95.4473 218.807 95.7352C218.807 95.9329 218.935 96.0983 219.187 96.2261C219.439 96.3563 219.728 96.4615 220.045 96.5439C220.367 96.6266 220.734 96.7019 221.143 96.767C221.552 96.8321 221.989 96.9472 222.458 97.1074C222.93 97.2703 223.339 97.4604 223.689 97.6884C224.041 97.9161 224.325 98.2392 224.548 98.6598C224.769 99.0807 224.88 99.5738 224.88 100.142C224.88 101.104 224.488 101.895 223.699 102.516M229.587 101.965C229.587 102.341 229.452 102.661 229.19 102.919C228.927 103.177 228.606 103.307 228.226 103.307C227.847 103.307 227.537 103.177 227.28 102.919C227.018 102.661 226.888 102.343 226.888 101.965V94.0951C226.888 93.727 227.018 93.4165 227.285 93.1586C227.548 92.9056 227.874 92.7729 228.271 92.7729C228.628 92.7729 228.938 92.9031 229.195 93.166C229.457 93.424 229.587 93.7344 229.587 94.0926V101.965ZM229.372 91.313C229.057 91.6287 228.675 91.7888 228.226 91.7888C227.777 91.7888 227.41 91.6262 227.093 91.313C226.771 90.9977 226.609 90.6169 226.609 90.1762C226.609 89.7356 226.771 89.3548 227.083 89.0444C227.403 88.729 227.785 88.5763 228.226 88.5763C228.668 88.5763 229.06 88.729 229.372 89.0444C229.686 89.3548 229.844 89.7307 229.844 90.1762C229.844 90.6221 229.686 90.9977 229.372 91.313ZM241.097 101.965C241.097 102.341 240.97 102.661 240.713 102.919C240.46 103.177 240.146 103.307 239.779 103.307H239.575C239.497 103.307 239.405 103.295 239.295 103.262C239.183 103.227 239.055 103.175 238.916 103.1C238.771 103.025 238.654 102.902 238.554 102.731C238.454 102.561 238.401 102.361 238.401 102.128C238.049 102.539 237.585 102.862 237.016 103.095C236.445 103.328 235.823 103.44 235.152 103.44C234.733 103.44 234.318 103.365 233.909 103.222C233.5 103.077 233.12 102.872 232.771 102.601C232.417 102.331 232.135 101.973 231.92 101.525C231.71 101.079 231.603 100.581 231.603 100.032C231.603 99.5688 231.673 99.1483 231.818 98.7675C231.957 98.387 232.144 98.0713 232.384 97.8236C232.619 97.5733 232.893 97.3653 233.203 97.195C233.512 97.0247 233.829 96.9022 234.156 96.8269C234.483 96.7494 234.815 96.7143 235.149 96.7143C235.833 96.7143 236.462 96.8195 237.036 97.0373C237.608 97.2552 238.06 97.5631 238.401 97.9637V96.5766C238.401 96.0558 238.197 95.6352 237.788 95.322C237.373 95.0066 236.829 94.8486 236.153 94.8486C235.299 94.8486 234.531 95.0717 233.864 95.5124C233.699 95.6074 233.532 95.6577 233.375 95.6577C233.113 95.6577 232.873 95.5624 232.664 95.3695C232.454 95.1769 232.347 94.9239 232.347 94.6209C232.347 94.4456 232.399 94.2704 232.504 94.0877C232.786 93.6319 233.362 93.2737 234.226 93.0157C235.089 92.763 235.886 92.6303 236.619 92.6303C237.233 92.6303 237.797 92.7004 238.312 92.8306C238.821 92.9608 239.292 93.1709 239.724 93.4641C240.156 93.752 240.496 94.1602 240.735 94.6811C240.98 95.2019 241.097 95.8178 241.097 96.5316V101.958V101.965ZM237.493 98.7777C237.106 98.6249 236.682 98.5447 236.233 98.5447C235.678 98.5447 235.217 98.6851 234.85 98.9554C234.483 99.231 234.296 99.6114 234.296 100.102C234.296 100.566 234.483 100.934 234.855 101.209C235.224 101.48 235.684 101.615 236.233 101.615C236.682 101.615 237.104 101.537 237.493 101.382C237.885 101.229 238.189 101.006 238.404 100.713V99.4411C238.189 99.1483 237.885 98.9304 237.493 98.7777ZM210.486 98.7777C210.094 98.6249 209.67 98.5447 209.223 98.5447C208.669 98.5447 208.208 98.6851 207.841 98.9554C207.474 99.231 207.292 99.6114 207.292 100.102C207.292 100.566 207.474 100.934 207.846 101.209C208.215 101.48 208.679 101.615 209.223 101.615C209.673 101.615 210.094 101.537 210.486 101.382C210.873 101.229 211.18 101.006 211.392 100.713V99.4411C211.177 99.1483 210.873 98.9304 210.486 98.7777ZM210.486 98.7777C210.094 98.6249 209.67 98.5447 209.223 98.5447C208.669 98.5447 208.208 98.6851 207.841 98.9554C207.474 99.231 207.292 99.6114 207.292 100.102C207.292 100.566 207.474 100.934 207.846 101.209C208.215 101.48 208.679 101.615 209.223 101.615C209.673 101.615 210.094 101.537 210.486 101.382C210.873 101.229 211.18 101.006 211.392 100.713V99.4411C211.177 99.1483 210.873 98.9304 210.486 98.7777ZM210.486 98.7777C210.094 98.6249 209.67 98.5447 209.223 98.5447C208.669 98.5447 208.208 98.6851 207.841 98.9554C207.474 99.231 207.292 99.6114 207.292 100.102C207.292 100.566 207.474 100.934 207.846 101.209C208.215 101.48 208.679 101.615 209.223 101.615C209.673 101.615 210.094 101.537 210.486 101.382C210.873 101.229 211.18 101.006 211.392 100.713V99.4411C211.177 99.1483 210.873 98.9304 210.486 98.7777ZM210.486 98.7777C210.094 98.6249 209.67 98.5447 209.223 98.5447C208.669 98.5447 208.208 98.6851 207.841 98.9554C207.474 99.231 207.292 99.6114 207.292 100.102C207.292 100.566 207.474 100.934 207.846 101.209C208.215 101.48 208.679 101.615 209.223 101.615C209.673 101.615 210.094 101.537 210.486 101.382C210.873 101.229 211.18 101.006 211.392 100.713V99.4411C211.177 99.1483 210.873 98.9304 210.486 98.7777ZM210.486 98.7777C210.094 98.6249 209.67 98.5447 209.223 98.5447C208.669 98.5447 208.208 98.6851 207.841 98.9554C207.474 99.231 207.292 99.6114 207.292 100.102C207.292 100.566 207.474 100.934 207.846 101.209C208.215 101.48 208.679 101.615 209.223 101.615C209.673 101.615 210.094 101.537 210.486 101.382C210.873 101.229 211.18 101.006 211.392 100.713V99.4411C211.177 99.1483 210.873 98.9304 210.486 98.7777Z" fill="#57CF92"/>
<path id="Vector_14" d="M208.814 23.4114C208.946 23.0383 209.011 22.6427 209.011 22.2245C209.011 19.9834 207.214 18.1579 204.958 18.1579C202.702 18.1579 200.905 19.9834 200.905 22.2245C200.905 24.4656 202.724 26.291 204.958 26.291C206.163 26.291 207.236 25.7852 207.938 24.9489L213.044 27.8736L211.205 33.6102C211.117 33.8531 210.853 33.9833 210.613 33.9182L198.057 29.8743C197.815 29.7867 197.685 29.5212 197.75 29.2808L201.783 16.6831C201.871 16.4402 202.133 16.31 202.375 16.3751L214.931 20.4191C215.171 20.5067 215.325 20.7722 215.238 21.0125L213.593 26.1583L208.816 23.4089L208.814 23.4114Z" fill="#57CF92"/>
<path id="Vector_15" d="M216.353 32.0502L213.198 33.1944L214.601 28.7749L216.398 29.8065V29.8291C216.178 30.5753 216.156 31.3239 216.353 32.0502Z" fill="#57CF92"/>
<path id="Vector_16" d="M230.157 26.5339L226.541 37.8347C226.344 38.4506 225.707 38.7786 225.093 38.5833L213.962 34.9999L217.292 33.7906C217.773 34.3414 218.41 34.7144 219.111 34.9348C219.505 35.0677 219.9 35.11 220.294 35.11C221.17 35.11 222.004 34.8246 222.705 34.3188C223.406 33.8131 223.933 33.087 224.195 32.2079C224.524 31.1538 224.415 30.0545 223.888 29.0855C223.384 28.1189 222.53 27.4153 221.477 27.1073C220.426 26.7767 219.331 26.8869 218.365 27.4153C217.948 27.6356 217.576 27.9211 217.292 28.2717L215.145 27.0622L216.7 22.2044C216.897 21.6109 217.534 21.2804 218.148 21.4582L229.411 25.0865C230.025 25.2844 230.355 25.9454 230.157 26.5389V26.5339Z" fill="#57CF92"/>
<path id="Vector_17" d="M204.651 38.1801C204.384 37.6744 204.327 37.0982 204.492 36.5474C204.656 35.9939 205.023 35.5483 205.53 35.2727C205.845 35.1077 206.189 35.02 206.536 35.02C206.743 35.02 206.952 35.0549 207.155 35.1151C208.28 35.4533 208.924 36.6551 208.587 37.787C208.42 38.3328 208.048 38.7861 207.547 39.054C207.045 39.3268 206.468 39.3845 205.919 39.2191C205.373 39.054 204.924 38.6834 204.651 38.1801Z" fill="#F8D136"/>
<path id="Vector_18" d="M208.761 41.2349L206.547 48.1435C206.352 48.7495 205.706 49.085 205.104 48.8896L193.838 45.2615C193.237 45.0661 192.905 44.42 193.094 43.8139L196.711 32.511C196.906 31.9074 197.552 31.5745 198.158 31.7698L204.291 33.7477C203.489 34.2711 202.905 35.0548 202.626 35.9839C202.311 37.0356 202.419 38.1424 202.933 39.1064C203.455 40.0707 204.308 40.7767 205.351 41.092C205.741 41.2124 206.145 41.2701 206.537 41.2701C207.138 41.2701 207.735 41.1321 208.289 40.8668L208.756 41.2398L208.761 41.2349Z" fill="#57CF92"/>
<path id="Vector_19" d="M216.873 49.6036C215.74 49.2605 215.101 48.0635 215.44 46.9268C215.605 46.3809 215.972 45.9276 216.479 45.6598C216.793 45.4894 217.137 45.4067 217.484 45.4067C217.691 45.4067 217.901 45.4345 218.103 45.4944C218.65 45.6647 219.102 46.0279 219.371 46.5386C219.541 46.8542 219.623 47.1998 219.623 47.5479C219.623 47.7581 219.596 47.9636 219.531 48.1663C219.189 49.2981 217.999 49.9418 216.873 49.6036Z" fill="#F8D136"/>
<path id="Vector_20" d="M225.298 41.7232L221.682 53.0215C221.487 53.6275 220.841 53.958 220.234 53.7676L208.973 50.1395C208.369 49.9441 208.04 49.2955 208.23 48.687L210.239 42.4144L213.997 45.4168C213.82 45.7096 213.68 46.0228 213.58 46.3656C212.927 48.5293 214.152 50.818 216.306 51.4691C216.7 51.5891 217.094 51.6416 217.484 51.6416C218.365 51.6416 219.204 51.3561 219.895 50.8504C220.589 50.3447 221.123 49.6133 221.392 48.7345C221.707 47.6854 221.599 46.581 221.085 45.617C220.569 44.6506 219.708 43.9467 218.667 43.6314C217.626 43.3132 216.52 43.4234 215.559 43.9393C215.502 43.9693 215.45 44.002 215.395 44.0396L210.875 40.4262L211.848 37.3887C212.043 36.7829 212.69 36.4472 213.296 36.6425L224.557 40.271C225.161 40.4664 225.488 41.1147 225.298 41.7232Z" fill="#57CF92"/>
<path id="Vector_21" d="M245.137 29.9243C243.672 31.219 241.44 31.0736 240.15 29.6038L220.793 7.52078L192.199 13.2725C190.287 13.6556 188.428 12.4111 188.046 10.4931C187.659 8.57246 188.9 6.70696 190.811 6.32634L221.282 0.198985C221.714 0.113848 222.151 0.10884 222.563 0.178953C222.815 0.206497 223.067 0.26409 223.309 0.349227C223.86 0.542038 224.374 0.875073 224.791 1.35084L245.456 24.9213C246.747 26.3912 246.602 28.6298 245.137 29.9243Z" fill="#F8D136"/>
<path id="Vector_22" d="M207.107 22.2247C207.107 22.2898 207.107 22.3575 207.084 22.4226C207.039 23.0611 206.69 23.632 206.208 23.9625C205.856 24.2255 205.419 24.3807 204.96 24.3807C203.777 24.3807 202.834 23.4142 202.834 22.2247C202.834 21.0353 203.775 20.0913 204.96 20.0913C206.146 20.0913 207.107 21.0378 207.107 22.2247Z" fill="#F8D136"/>
<path id="Vector_23" d="M218.414 32.0277C218.147 31.5245 218.089 30.9459 218.249 30.4C218.419 29.8466 218.781 29.3984 219.287 29.1255C219.604 28.9602 219.946 28.8726 220.298 28.8726C220.501 28.8726 220.713 28.9026 220.915 28.9677C221.461 29.128 221.911 29.5011 222.183 30.0044C222.352 30.3199 222.435 30.6679 222.435 31.0184C222.435 31.2264 222.407 31.4368 222.347 31.6395C222.008 32.7689 220.813 33.4148 219.679 33.0692C219.135 32.9041 218.681 32.5359 218.414 32.0277Z" fill="#F8D136"/>
</g>
</g>
</g>
</g>
</g>
</g>
</svg>
