<svg width="41" height="41" viewBox="0 0 41 41" fill="none" xmlns="http://www.w3.org/2000/svg">
<circle cx="20.7581" cy="20.2966" r="20" fill="#55D6C0"/>
<g clip-path="url(#clip0_21_1674)">
<path d="M26.5035 14.2347C25.9799 14.3711 25.5902 14.6594 25.3431 15.148C25.3221 15.1898 25.2279 15.214 25.1713 15.2096C24.899 15.1854 24.6288 15.148 24.3208 15.1083C24.3208 15.0731 24.3208 14.9873 24.3208 14.8993C24.3208 14.1752 24.2371 14.0894 23.5395 14.0894C22.821 14.0894 22.1025 14.0894 21.382 14.0894C18.927 14.0894 16.472 14.0894 14.019 14.0894C13.5415 14.0894 13.3885 14.2479 13.3885 14.7408C13.3885 15.2756 13.3885 15.8082 13.3885 16.343C13.3885 16.7523 13.554 16.9239 13.9478 16.9239C16.9035 16.9239 19.8591 16.9261 22.8147 16.9195C23.0116 16.9195 23.0619 16.979 23.1227 17.177C23.2148 17.4719 23.3782 17.7514 23.55 18.0089C23.6715 18.1916 23.8579 18.3258 23.9899 18.4556C23.7846 18.6999 23.6107 18.92 23.4222 19.1291C23.3782 19.1775 23.2882 19.2039 23.219 19.2039C22.754 19.2105 22.289 19.2039 21.8239 19.2083C21.472 19.2083 21.3003 19.3822 21.2898 19.7475C21.2856 19.9147 21.2835 20.0842 21.2898 20.2514C21.3024 20.608 21.4637 20.7774 21.8093 20.784C22.1947 20.7906 22.5801 20.8082 22.9635 20.7796C23.2944 20.7532 23.5416 20.8324 23.682 21.2022C23.4494 21.4838 23.1667 21.7655 22.9551 22.0979C22.7079 22.4874 22.3979 22.6304 21.9706 22.5644C21.8596 22.5468 21.7381 22.5644 21.6249 22.5908C21.4385 22.637 21.317 22.7735 21.3024 22.9759C21.2856 23.2268 21.2793 23.4799 21.3024 23.7286C21.3149 23.854 21.405 23.9707 21.4678 24.1137C20.9232 24.9522 20.431 25.8523 20.1607 26.8778C20.1607 26.7282 20.167 26.5763 20.1607 26.4267C20.144 26.1054 19.9848 25.9271 19.6811 25.9227C19.1301 25.9139 18.5771 25.9139 18.0262 25.9227C17.7183 25.9271 17.5612 26.1054 17.5528 26.4267C17.5465 26.6313 17.5444 26.8382 17.557 27.0451C17.5717 27.307 17.7414 27.4896 17.9927 27.4918C18.5667 27.5006 19.1406 27.5072 19.7125 27.4852C19.8549 27.4808 19.9932 27.3664 20.1293 27.3048C19.9576 28.3611 20.0728 29.4219 20.477 30.4804C20.3744 30.4804 20.3032 30.4804 20.232 30.4804C17.9152 30.4804 15.5985 30.4826 13.2817 30.4804C12.1862 30.4804 11.3923 29.7828 11.2226 28.6824C11.2038 28.5548 11.2017 28.4249 11.2017 28.2951C11.2038 23.2906 11.2038 18.2862 11.2038 13.2817C11.2038 12.0053 12.0584 11.1074 13.2754 11.1074C16.9935 11.1074 20.7117 11.1074 24.4298 11.1074C25.6531 11.1074 26.4973 11.9921 26.5035 13.2751C26.5035 13.5876 26.5035 13.9001 26.5035 14.2347ZM15.1083 24.1423C15.3827 24.1423 15.6592 24.1489 15.9336 24.1423C16.229 24.1335 16.4091 23.9509 16.4217 23.645C16.4301 23.4469 16.4322 23.2488 16.4217 23.0508C16.407 22.7537 16.2332 22.5666 15.9483 22.5622C15.3911 22.5534 14.8318 22.5534 14.2746 22.5622C13.9897 22.5666 13.8221 22.7603 13.8117 23.0574C13.8054 23.24 13.8075 23.4227 13.8117 23.6053C13.818 23.9553 13.9876 24.1357 14.3228 24.1423C14.5846 24.1467 14.8444 24.1423 15.1062 24.1423H15.1083ZM18.8495 24.1423C19.1239 24.1423 19.4004 24.1489 19.6748 24.1423C19.9722 24.1335 20.1461 23.9575 20.1607 23.645C20.1712 23.4469 20.1712 23.2488 20.1607 23.0508C20.144 22.7515 19.9743 22.5666 19.6894 22.5622C19.1322 22.5534 18.573 22.5534 18.0158 22.5622C17.733 22.5666 17.5654 22.7581 17.5549 23.0574C17.5486 23.24 17.5486 23.4227 17.5549 23.6053C17.5633 23.9597 17.7309 24.1357 18.0681 24.1423C18.3279 24.1467 18.5897 24.1423 18.8515 24.1423H18.8495ZM15.1251 19.2083C14.8569 19.2083 14.5888 19.2061 14.3207 19.2083C13.9855 19.2127 13.818 19.391 13.8138 19.7475C13.8117 19.9235 13.8096 20.0974 13.8138 20.2734C13.8201 20.5926 13.9792 20.7752 14.2809 20.7818C14.8381 20.7906 15.3974 20.7906 15.9546 20.7818C16.2394 20.7774 16.4091 20.5926 16.4238 20.2933C16.4322 20.0952 16.4343 19.8971 16.4238 19.6991C16.4091 19.3932 16.2269 19.2171 15.9294 19.2127C15.6613 19.2083 15.3932 19.2127 15.1251 19.2127V19.2083ZM15.1062 27.494C15.389 27.494 15.6718 27.4984 15.9546 27.494C16.2248 27.4874 16.4049 27.3114 16.4238 27.0275C16.4363 26.8162 16.4363 26.6005 16.4238 26.3893C16.4091 26.1208 16.2457 25.9359 15.9986 25.9293C15.412 25.9161 14.8255 25.9161 14.239 25.9293C13.9855 25.9359 13.8284 26.1208 13.818 26.3871C13.8096 26.5851 13.8117 26.7832 13.818 26.9813C13.8242 27.307 13.996 27.4896 14.3039 27.494C14.5721 27.4984 14.8402 27.494 15.1083 27.494H15.1062ZM18.8599 20.784C19.1427 20.784 19.4255 20.7928 19.7083 20.7818C19.9701 20.7708 20.1356 20.6146 20.1566 20.3483C20.1733 20.115 20.1733 19.8751 20.1566 19.6418C20.1356 19.3778 19.9576 19.2149 19.7041 19.2127C19.1385 19.2061 18.575 19.2061 18.0095 19.2127C17.7476 19.2149 17.5759 19.3976 17.5612 19.6705C17.5507 19.8685 17.5528 20.0666 17.557 20.2646C17.5654 20.6102 17.7246 20.7774 18.0577 20.7862C18.3258 20.7928 18.5939 20.7862 18.862 20.7862L18.8599 20.784Z" fill="white"/>
<path d="M26.7845 33.8102C25.0774 33.8036 23.5503 33.2754 22.3123 32.0034C20.5465 30.1922 20.2595 27.6635 21.5289 25.388C22.2851 24.0323 23.2382 22.8329 24.2332 21.6687C24.2793 21.6159 24.3798 21.5939 24.4531 21.5939C24.6186 21.5939 24.7841 21.6313 24.9517 21.6313C26.1792 21.6357 27.4067 21.6313 28.6342 21.6313C28.7284 21.6313 28.8311 21.6533 28.9149 21.6203C29.1914 21.5125 29.3443 21.6555 29.514 21.8624C30.4293 22.9694 31.3238 24.0917 32.0255 25.366C32.9472 27.0407 33.1315 28.7727 32.2874 30.5377C31.5752 32.0254 30.3958 32.9585 28.9086 33.48C28.2215 33.7199 27.5114 33.819 26.7866 33.8102H26.7845ZM25.7896 26.1076C25.7854 25.8193 25.9236 25.6168 26.1477 25.4716C26.7238 25.0975 27.4695 25.3109 27.7921 25.9381C27.9304 26.2088 28.1419 26.3057 28.3577 26.1978C28.5776 26.0878 28.6384 25.8325 28.5085 25.5508C28.2781 25.0513 27.9115 24.7079 27.4046 24.5561C27.2181 24.4989 27.1553 24.4174 27.1616 24.2106C27.1742 23.9047 27.0045 23.7286 26.7531 23.7352C26.5143 23.7418 26.3509 23.9201 26.3677 24.2128C26.3803 24.4307 26.3174 24.5363 26.1121 24.5649C26.0346 24.5759 25.9613 24.6177 25.8901 24.6551C25.3099 24.961 24.9684 25.4408 24.9789 26.1406C24.9894 26.8316 25.3601 27.2762 25.9446 27.5249C26.2106 27.6371 26.5039 27.6767 26.7783 27.7714C27.0652 27.8682 27.3753 27.9408 27.6203 28.1103C28.0477 28.4052 27.9911 29.0258 27.5177 29.2238C27.2328 29.3449 26.8998 29.4043 26.5918 29.3911C26.1478 29.3713 25.7875 29.149 25.6241 28.6715C25.5172 28.3589 25.3329 28.2357 25.0899 28.3171C24.8553 28.3964 24.7652 28.634 24.8616 28.9399C25.0606 29.5693 25.4816 29.9633 26.0744 30.1415C26.2923 30.2076 26.4075 30.2868 26.3593 30.5333C26.353 30.5619 26.3593 30.5949 26.3635 30.6235C26.397 30.8282 26.5646 30.9734 26.7615 30.9734C26.9605 30.9734 27.1197 30.8282 27.1511 30.6169C27.1595 30.5575 27.1658 30.4937 27.1595 30.4342C27.1448 30.289 27.193 30.2252 27.3396 30.1878C27.5491 30.1349 27.7607 30.0601 27.9471 29.9523C28.8918 29.4065 28.9714 28.1081 28.1105 27.4214C27.7712 27.1529 27.3753 27.0385 26.9689 26.9439C26.7008 26.8801 26.4326 26.814 26.1771 26.7084C25.932 26.6094 25.777 26.4091 25.7833 26.1098L25.7896 26.1076Z" fill="white"/>
<path d="M26.7721 18.2972C26.1772 18.2972 25.5823 18.3038 24.9874 18.2906C24.8785 18.2884 24.7507 18.2312 24.669 18.1563C24.4511 17.9561 24.2501 17.7338 24.049 17.5137C23.7117 17.1462 23.6782 16.6312 23.9568 16.2417C24.2291 15.8632 24.7067 15.7598 25.1298 15.9864C25.5236 16.1977 25.7645 16.0899 25.907 15.6387C26.0368 15.2184 26.3825 14.9499 26.7847 14.9499C27.1868 14.9499 27.5325 15.2206 27.6623 15.6409C27.8027 16.0899 28.0436 16.1977 28.4395 15.9864C28.8605 15.762 29.3423 15.8676 29.6125 16.2439C29.8869 16.6268 29.8576 17.133 29.5329 17.4983C29.3151 17.7426 29.0888 17.9803 28.8542 18.207C28.7956 18.2642 28.6887 18.2928 28.6029 18.2928C27.9933 18.2994 27.3837 18.2972 26.7742 18.2972H26.7721Z" fill="white"/>
<path d="M26.7868 20.9006C26.1479 20.9006 25.509 20.9006 24.8722 20.9006C24.315 20.9006 23.9212 20.5155 23.917 19.9741C23.9128 19.4218 24.3087 19.03 24.8764 19.03C26.1458 19.03 27.4152 19.03 28.6867 19.03C29.2564 19.03 29.6565 19.4196 29.6565 19.9675C29.6565 20.5155 29.2564 20.8984 28.6846 20.9006C28.0541 20.9006 27.4215 20.9006 26.791 20.9006H26.7868Z" fill="white"/>
</g>
<defs>
<clipPath id="clip0_21_1674">
<rect width="21.6216" height="22.7027" fill="white" transform="translate(11.2041 11.1074)"/>
</clipPath>
</defs>
</svg>
