<svg width="13" height="8" viewBox="0 0 13 8" fill="none" xmlns="http://www.w3.org/2000/svg">
<path d="M12.98 7.27002C12.89 7.49002 12.72 7.56002 12.49 7.56002C8.49 7.56002 4.49 7.56002 0.490002 7.56002C0.220002 7.56002 0.0800021 7.48002 0.0200021 7.29002C-0.0399979 7.08002 0.0900021 6.85002 0.310002 6.81002C0.370002 6.81002 0.440002 6.80002 0.500002 6.80002C1.52 6.80002 2.54 6.80002 3.55 6.80002C3.65 6.80002 3.69 6.77002 3.71 6.67002C4.02 5.11002 5.44 4.14002 7 4.41002C8.1 4.60002 9.05 5.54002 9.24 6.64002C9.26 6.78002 9.31 6.81002 9.45 6.81002C10.46 6.81002 11.47 6.81002 12.48 6.81002C12.71 6.81002 12.88 6.88002 12.97 7.10002V7.28002L12.98 7.27002Z" fill="white"/>
<path d="M2.25005 5.13001C2.18005 5.10001 2.10005 5.08001 2.03005 5.05001C1.70005 4.86001 1.36005 4.67001 1.03005 4.48001C0.820047 4.36001 0.750047 4.13001 0.870047 3.94001C0.980047 3.75001 1.20005 3.70001 1.41005 3.82001C1.75005 4.02001 2.10005 4.21001 2.44005 4.42001C2.60005 4.52001 2.67005 4.69001 2.61005 4.85001C2.56005 5.01001 2.42005 5.12001 2.25005 5.14001V5.13001Z" fill="white"/>
<path d="M10.7499 5.12001C10.5499 5.12001 10.3999 5.00001 10.3499 4.84001C10.2999 4.68001 10.3699 4.51001 10.5299 4.42001C10.8199 4.25001 11.1099 4.08001 11.4099 3.91001C11.4799 3.87001 11.5499 3.83001 11.6199 3.79001C11.7999 3.71001 12.0099 3.77001 12.1099 3.93001C12.2099 4.10001 12.1799 4.33001 11.9999 4.43001C11.6299 4.65001 11.2599 4.86001 10.8799 5.08001C10.8299 5.11001 10.7799 5.11001 10.7499 5.12001Z" fill="white"/>
<path d="M6.10986 1.68001C6.10986 1.49001 6.10986 1.29001 6.10986 1.10001C6.10986 0.860012 6.26986 0.700012 6.48986 0.700012C6.70986 0.700012 6.86986 0.870012 6.86986 1.10001C6.86986 1.49001 6.86986 1.89001 6.86986 2.28001C6.86986 2.51001 6.69986 2.68001 6.47986 2.68001C6.26986 2.68001 6.10986 2.51001 6.10986 2.28001C6.10986 2.08001 6.10986 1.88001 6.10986 1.68001Z" fill="white"/>
<path d="M3.47999 1.52001C3.56999 1.52001 3.67999 1.58001 3.74999 1.70001C3.95999 2.06001 4.16999 2.41001 4.36999 2.77001C4.46999 2.95001 4.40999 3.17001 4.23999 3.27001C4.06999 3.38001 3.83999 3.34001 3.72999 3.16001C3.50999 2.79001 3.28999 2.42001 3.08999 2.04001C2.95999 1.80001 3.15999 1.52001 3.47999 1.51001V1.52001Z" fill="white"/>
<path d="M9.54984 1.52002C9.83984 1.52002 10.0098 1.83002 9.85984 2.10002C9.67984 2.42002 9.48984 2.74002 9.29984 3.06002C9.27984 3.09002 9.25984 3.13002 9.23984 3.16002C9.10984 3.33002 8.89984 3.38002 8.72984 3.28002C8.55984 3.18002 8.48984 2.96002 8.59984 2.77002C8.70984 2.56002 8.82984 2.36002 8.94984 2.16002C9.02984 2.01002 9.11984 1.87002 9.19984 1.72002C9.27984 1.59002 9.38984 1.52002 9.53984 1.52002H9.54984Z" fill="white"/>
</svg>
