<svg width="41" height="41" viewBox="0 0 41 41" fill="none" xmlns="http://www.w3.org/2000/svg">
<g id="Group 1957">
<circle id="Ellipse 65" cx="20.7581" cy="20.1577" r="20" fill="#6EDA9C"/>
<g id="Group 1953">
<path id="Vector" d="M26.1754 27.488V26.3475C26.8144 26.464 27.3464 26.3114 27.7801 25.8813C28.1068 25.5595 28.2485 25.1654 28.2225 24.7187C28.1705 23.8529 27.2886 23.0788 26.1783 23.2952C26.1783 23.2008 26.1783 23.1148 26.1783 23.0288C26.1783 21.8661 26.1783 20.7063 26.1783 19.5436C26.1783 19.1163 26.0222 18.9637 25.5798 18.9609C25.0275 18.9581 24.4782 18.9609 23.9143 18.9387C24.6343 18.6002 25.1808 18.1201 25.4236 17.3709C25.6636 16.6273 25.5653 15.9197 25.1258 15.226C26.0684 15.1677 26.9561 15.2398 27.7685 15.6783C29.2056 16.4497 29.966 17.629 29.9718 19.2162C29.9862 21.9827 29.9776 24.7464 29.9718 27.5129C29.9718 27.6878 30.0123 27.8043 30.1713 27.9208C30.7409 28.3287 31.0127 28.8948 31.0242 29.5719C31.03 29.9159 31.0242 30.26 31.0242 30.6041C31.0242 31.037 30.8941 31.1591 30.446 31.1591C24.7181 31.1591 18.9903 31.1591 13.2625 31.1591C12.5223 31.1591 11.7792 31.1591 11.039 31.1591C10.6342 31.1591 10.4897 31.0287 10.4925 30.6485C10.4925 30.199 10.4781 29.7467 10.5215 29.2999C10.6169 28.362 11.3975 27.6267 12.3719 27.5157C12.5483 27.4963 12.7276 27.488 12.9069 27.488C17.2121 27.488 21.5174 27.488 25.8198 27.488C25.9296 27.488 26.0366 27.488 26.1696 27.488H26.1754Z" fill="white"/>
<path id="Vector_2" d="M19.8864 11.8797C19.9442 11.6771 19.9934 11.4995 20.0425 11.3247C19.0508 10.9501 19.2185 10.1038 19.6146 9.51274C19.8228 9.20196 20.1813 9.09374 20.5658 9.19086C21.6761 9.46834 22.7864 9.75415 23.8938 10.0455C24.4027 10.1787 24.6745 10.6393 24.5531 11.1305C24.5213 11.2664 24.4837 11.3996 24.4403 11.5328C24.3044 11.9324 23.9488 12.171 23.5093 12.1655C23.4254 12.1655 23.3416 12.1572 23.2433 12.1544C23.2143 12.2432 23.1854 12.3292 23.1623 12.4124C23.1392 12.4985 23.1189 12.5845 23.0871 12.701C23.5295 12.8203 24.021 12.9119 24.1367 13.4003C24.2061 13.6944 24.1309 14.0191 24.1165 14.3854C23.1768 13.9969 22.344 14.0662 21.5576 14.5463C20.9967 14.8876 20.6063 15.3649 20.4444 15.9892C20.2565 16.719 20.3837 17.4016 20.8347 18.0204C21.2858 18.6336 21.919 18.9694 22.6823 19.0748C22.584 19.8601 22.2544 20.4262 21.2829 20.2625C21.2222 20.4678 21.1644 20.6787 21.1036 20.8868C20.988 21.2864 20.8347 21.3724 20.4126 21.2753C20.3634 21.2642 20.3143 21.2531 20.2362 21.2364C20.1379 21.5722 20.0454 21.8996 19.9471 22.2243C19.8372 22.5961 19.6782 22.6821 19.2879 22.5822C18.8281 22.4657 18.3684 22.3464 17.9087 22.227C17.5559 22.1355 17.4547 21.9662 17.5472 21.6249C17.6369 21.2947 17.7352 20.9645 17.8306 20.6287C17.793 20.6093 17.7641 20.5871 17.7352 20.5788C17.2003 20.4262 17.1425 20.3235 17.2899 19.8018C17.3391 19.6298 17.3882 19.4577 17.4403 19.2718C17.3738 19.2469 17.3217 19.2247 17.2697 19.2052C16.7984 19.0249 16.5468 18.5837 16.6769 18.1147C17.2061 16.2223 17.7439 14.3299 18.2874 12.443C18.4436 11.9046 18.9293 11.6494 19.4989 11.7853C19.6146 11.8131 19.7273 11.8436 19.8835 11.8824L19.8864 11.8797Z" fill="white"/>
<path id="Vector_3" d="M24.0099 25.2155C23.8104 25.8842 23.5473 26.0729 22.8274 26.0729C20.2107 26.0729 17.594 26.0729 14.9773 26.0729C14.5812 26.0729 14.2168 25.9841 14.0463 25.6317C13.7947 25.11 13.8063 24.5495 14.0376 24.0195C14.1532 23.7504 14.4221 23.6116 14.7344 23.5839C14.8182 23.5756 14.905 23.5756 14.9888 23.5756C17.6229 23.5756 20.2569 23.5756 22.891 23.5756C23.5444 23.5756 23.8336 23.7948 24.0013 24.4302C24.5882 24.4302 25.1838 24.433 25.7795 24.4247C25.8402 24.4247 25.9096 24.3608 25.9587 24.3137C26.3028 23.9724 26.8233 23.9529 27.1702 24.2776C27.4912 24.5745 27.4854 25.0712 27.1587 25.3764C26.8204 25.6928 26.3202 25.6733 25.9703 25.3376C25.9154 25.2849 25.8344 25.2238 25.7679 25.221C25.181 25.2127 24.594 25.2155 24.0128 25.2155H24.0099Z" fill="white"/>
<path id="Vector_4" d="M21.2107 16.6301C21.2107 15.645 21.9538 14.918 22.9513 14.9263C23.9691 14.9347 24.715 15.6311 24.7208 16.5801C24.7266 17.5375 23.972 18.2867 23.0005 18.2894C21.974 18.295 21.2107 17.5846 21.2107 16.6273V16.6301ZM23.3561 16.594C23.3503 16.3859 23.1739 16.225 22.9542 16.2305C22.7345 16.2361 22.5696 16.4026 22.5754 16.6134C22.5812 16.8271 22.746 16.9769 22.9744 16.9714C23.1971 16.9658 23.3619 16.8049 23.3561 16.594Z" fill="white"/>
</g>
</g>
</svg>
