<svg width="41" height="41" viewBox="0 0 41 41" fill="none" xmlns="http://www.w3.org/2000/svg">
<circle cx="20.7581" cy="20.0188" r="20" fill="#65B9FF"/>
<g clip-path="url(#clip0_21_1673)">
<path d="M25.387 8.12689C25.5696 8.2157 25.7704 8.28083 25.9287 8.40517C26.3426 8.72489 26.4643 9.28144 26.2452 9.74919C26.0261 10.2228 25.5148 10.4834 24.9731 10.4064C24.4801 10.3353 24.0601 9.90313 24.0053 9.41762C23.9444 8.88475 24.2366 8.41109 24.7357 8.2157C24.8087 8.1861 24.8818 8.16242 24.9548 8.13281C25.1009 8.13281 25.2409 8.13281 25.387 8.13281V8.12689Z" fill="white"/>
<path d="M17.5107 15.291H15.7577V13.3016H25.7461V15.2851H24.0174C24.0053 15.3384 23.9992 15.3739 23.9992 15.4094C23.9992 16.2857 23.9992 17.1561 23.9992 18.0323C23.9992 18.1389 24.06 18.2514 24.1209 18.3461C26.0748 21.3894 28.0286 24.4327 29.9886 27.476C30.6094 28.4352 30.6581 29.4358 30.0981 30.4245C29.5382 31.4015 28.6434 31.8988 27.493 31.9047C22.9949 31.9107 18.5028 31.9107 14.0047 31.9047C11.8317 31.9047 10.4074 29.7496 11.3082 27.849C11.3691 27.7247 11.4421 27.6003 11.5152 27.4878C13.469 24.4445 15.429 21.4013 17.3767 18.358C17.4559 18.2336 17.5046 18.0738 17.5046 17.9317C17.5167 17.1442 17.5046 16.3508 17.5046 15.5634C17.5046 15.4805 17.5046 15.3976 17.5046 15.2969L17.5107 15.291ZM25.4113 24.1604C25.3444 24.0479 25.3017 23.9768 25.2591 23.9058C24.2 22.2539 23.1348 20.602 22.0757 18.9441C21.9905 18.808 21.9418 18.6303 21.9418 18.4705C21.9297 17.4935 21.9418 16.5225 21.9358 15.5456C21.9358 15.4627 21.9297 15.3798 21.9236 15.3029H19.568C19.568 15.4035 19.568 15.4864 19.568 15.5693C19.568 16.5344 19.5741 17.5054 19.5619 18.4705C19.5619 18.6303 19.5132 18.808 19.428 18.9441C18.3689 20.6079 17.2976 22.2657 16.2324 23.9235C16.1898 23.9946 16.1472 24.0656 16.0924 24.1604H25.4113Z" fill="white"/>
<path d="M22.2281 12.4135C21.4125 12.4135 20.7551 11.78 20.7551 10.9866C20.7551 10.1932 21.4064 9.55969 22.222 9.55969C23.0377 9.55969 23.695 10.1991 23.7011 10.9866C23.7011 11.7741 23.0438 12.4135 22.2281 12.4194V12.4135Z" fill="white"/>
</g>
<defs>
<clipPath id="clip0_21_1673">
<rect width="19.4595" height="23.7838" fill="white" transform="translate(11.0283 8.12689)"/>
</clipPath>
</defs>
</svg>
