<svg width="41" height="41" viewBox="0 0 41 41" fill="none" xmlns="http://www.w3.org/2000/svg">
<circle cx="20.5881" cy="20.5708" r="20" fill="#FFB357"/>
<path d="M19.7672 12.8037C19.8212 12.5755 19.858 12.3638 19.9217 12.1622C20.2322 11.1784 20.8497 10.4737 21.7688 10.0733C22.8298 9.61049 23.0821 9.24166 23.087 8.04475C23.0891 7.54604 23.3074 7.21237 23.701 7.10474C24.182 6.97414 24.688 7.29705 24.7351 7.80795C24.8848 9.42751 24.2472 10.7765 22.8673 11.4661C22.712 11.5436 22.5464 11.5967 22.3884 11.6692C21.9171 11.8852 21.6191 12.2533 21.4694 12.8037C22.0349 12.8037 22.5776 12.7685 23.1147 12.813C23.7572 12.8654 24.4149 12.9091 25.0303 13.0893C27.9884 13.9525 29.9082 16.9978 29.5395 20.1494C29.2636 22.5037 28.9996 24.8595 28.7403 27.2153C28.3633 30.6388 25.6825 33.5034 22.3717 33.9174C20.7825 34.1162 19.1656 34.1922 17.6194 33.6418C14.6523 32.5856 12.8989 30.425 12.4581 27.2031C12.1372 24.8545 11.923 22.4916 11.6382 20.1386C11.2299 16.7711 13.5788 13.476 16.8216 12.917C17.2458 12.8438 17.6803 12.8216 18.1107 12.808C18.6617 12.79 19.2141 12.8037 19.7672 12.8037ZM21.4264 18.8492C21.4264 18.2852 21.4292 17.7212 21.4257 17.1571C21.4222 16.6305 21.0736 16.2473 20.603 16.2437C20.129 16.2401 19.7699 16.6197 19.7679 17.1421C19.7637 18.2608 19.7637 19.3802 19.7679 20.4989C19.7699 21.0198 20.131 21.403 20.6023 21.3994C21.0729 21.3958 21.4222 21.0126 21.4257 20.4867C21.4298 19.9406 21.4264 19.3945 21.4264 18.8485V18.8492Z" fill="white"/>
</svg>
