<svg width="41" height="41" viewBox="0 0 41 41" fill="none" xmlns="http://www.w3.org/2000/svg">
<g id="Group 1958">
<circle id="Ellipse 65" cx="20.7581" cy="20.8799" r="20" fill="#82C3FF"/>
<g id="Group 1954">
<path id="Vector" d="M11.8707 22.6499C12.1367 22.3785 12.3699 22.1345 12.6113 21.8961C12.9706 21.5397 13.3985 21.5397 13.7605 21.8933C14.065 22.1921 14.3667 22.4936 14.6684 22.7924C14.6739 22.7979 14.6822 22.8006 14.6657 22.7924C15.0744 22.3812 15.4776 21.9756 15.8918 21.5616C15.8781 21.5507 15.8205 21.515 15.7683 21.4739C15.516 21.2848 15.409 20.9696 15.4913 20.6763C15.5818 20.3638 15.8369 20.1335 16.1551 20.1253C16.6982 20.1116 17.244 20.1089 17.7899 20.1253C18.1684 20.1363 18.4783 20.4515 18.4893 20.8325C18.503 21.3698 18.503 21.907 18.4893 22.4416C18.4811 22.7677 18.2452 23.0364 17.927 23.1241C17.6335 23.2036 17.3181 23.0912 17.1316 22.8363C17.0959 22.7869 17.0657 22.7349 17.0218 22.6636C16.4376 23.2474 15.8753 23.8231 15.2966 24.3795C15.1676 24.5029 14.9866 24.6043 14.8138 24.6482C14.5615 24.7139 14.3338 24.6098 14.15 24.4206C13.8401 24.1054 13.5301 23.7902 13.201 23.4558C12.9267 23.7299 12.6634 23.9875 12.4083 24.2534C12.3781 24.2836 12.3836 24.374 12.4056 24.4206C13.3272 26.5286 14.8248 28.0855 16.9012 29.0888C16.9204 29.097 16.945 29.0943 16.9834 29.0997V27.1097C16.9834 26.7314 16.9834 26.3531 16.9834 25.9721C16.9834 25.5335 17.0904 25.4212 17.5211 25.4212C17.9243 25.4212 18.3275 25.4212 18.7279 25.4212C19.1421 25.4212 19.2546 25.5363 19.2546 25.9612C19.2546 27.1618 19.2546 28.3596 19.2546 29.5603V29.8426C19.5069 29.8755 19.7455 29.9029 20.0116 29.9385V29.6315C20.0116 27.6497 20.0116 25.6706 20.0116 23.6888C20.0116 23.2666 20.1241 23.1515 20.5382 23.1515C20.9332 23.1515 21.3282 23.1515 21.7232 23.1515C22.1785 23.1515 22.2855 23.2557 22.2855 23.7025C22.2855 25.6514 22.2855 27.6004 22.2855 29.5493V29.8344C22.5433 29.7795 22.7792 29.7302 23.0425 29.6754V29.3958C23.0425 26.7835 23.0425 24.1712 23.0425 21.5589C23.0425 20.9394 23.1029 20.8791 23.7118 20.8791C24.0272 20.8791 24.3426 20.8791 24.6581 20.8791C25.2451 20.8791 25.3164 20.9476 25.3164 21.5233C25.3164 23.8286 25.3164 26.1311 25.3164 28.4364V28.7434C25.5742 28.5762 25.8019 28.4419 26.0103 28.2802C26.0652 28.239 26.0707 28.1129 26.0707 28.0252C26.0734 25.0813 26.0707 22.1373 26.0707 19.1933C26.0707 18.6972 26.1639 18.604 26.6659 18.604C27.0609 18.604 27.4558 18.604 27.8508 18.604C28.2211 18.604 28.3445 18.7301 28.3445 19.1056C28.3445 21.2683 28.3445 23.4311 28.3445 25.5938C28.3445 25.6624 28.3445 25.7309 28.3445 25.8214C30.5773 22.7513 30.5334 17.4088 26.8277 14.1414C26.8277 14.3634 26.8277 14.5553 26.8277 14.7472C26.825 15.2296 26.5123 15.5723 26.0734 15.575C25.6346 15.575 25.3136 15.2351 25.3136 14.7554C25.3136 14.0373 25.3109 13.3191 25.3136 12.6009C25.3136 12.0993 25.6236 11.7895 26.1283 11.7895C26.8387 11.7895 27.5491 11.7895 28.2595 11.7895C28.7505 11.7895 29.0906 12.0911 29.1016 12.5269C29.1125 12.9655 28.7916 13.2725 28.2979 13.3054C28.2815 13.3054 28.2677 13.3109 28.2156 13.3218C28.2897 13.4013 28.35 13.4644 28.4131 13.5301C30.1521 15.3585 31.1505 17.524 31.3343 20.0431C31.6991 25.0374 28.6901 29.4753 23.9285 31.0048C19.9869 32.2712 15.4968 30.9966 12.7786 27.8525C11.3194 26.1558 10.4581 24.2041 10.214 21.9865C9.69557 17.2828 12.4522 12.7571 16.882 11.0111C18.0998 10.5314 19.3615 10.2874 20.6672 10.2709C21.1691 10.2655 21.5202 10.5697 21.5257 11.0165C21.5312 11.4633 21.1911 11.7758 20.6891 11.7868C16.3087 11.869 12.699 14.8733 11.8405 19.1522C11.6156 20.2706 11.6211 21.3944 11.8241 22.5156C11.8295 22.5457 11.8433 22.5731 11.8707 22.6499Z" fill="white"/>
<path id="Vector_2" d="M20.7712 20.117C18.6784 20.117 16.975 18.4148 16.9778 16.3205C16.9805 14.24 18.6811 12.5433 20.763 12.5405C22.8558 12.5405 24.5592 14.2428 24.5564 16.337C24.5537 18.4175 22.8531 20.117 20.7712 20.117ZM19.2517 17.5074C19.2462 18.0639 19.6219 18.6149 20.1788 18.8506C20.2994 18.8999 20.3872 18.9438 20.4174 19.0973C20.4503 19.2673 20.5929 19.3577 20.7685 19.355C20.944 19.355 21.0894 19.2618 21.1168 19.0918C21.1443 18.9328 21.2403 18.8972 21.3582 18.8479C22.2688 18.4614 22.5706 17.3375 21.9726 16.5535C21.6599 16.1424 21.2348 15.9615 20.7218 15.945C20.3104 15.9313 20.0005 15.5804 20.0087 15.1775C20.0169 14.7965 20.3269 14.4675 20.7054 14.4374C21.1058 14.4072 21.4624 14.6978 21.5173 15.1035C21.5255 15.1583 21.5173 15.2159 21.5337 15.2679C21.5859 15.4571 21.7093 15.5695 21.9095 15.5667C22.118 15.5612 22.2442 15.4379 22.2771 15.2323C22.288 15.1638 22.2853 15.0898 22.2743 15.0212C22.1866 14.4456 21.8821 14.0344 21.3445 13.8014C21.232 13.7521 21.147 13.7165 21.1223 13.5712C21.0921 13.4012 20.955 13.3053 20.7767 13.3026C20.5902 13.2998 20.4476 13.3958 20.4092 13.5767C20.3817 13.7055 20.3186 13.7494 20.2062 13.796C19.4848 14.092 19.1145 14.8211 19.2983 15.5667C19.4574 16.2164 20.0334 16.6769 20.7273 16.7098C21.1799 16.7317 21.4981 17.0168 21.5228 17.4252C21.5447 17.8254 21.2375 18.1845 20.837 18.2229C20.4119 18.264 20.0581 17.9543 20.0087 17.4965C19.9813 17.2333 19.8304 17.0798 19.611 17.0908C19.397 17.1018 19.2544 17.269 19.2517 17.5102V17.5074Z" fill="white"/>
</g>
</g>
</svg>
