<svg width="10" height="10" viewBox="0 0 10 10" fill="none" xmlns="http://www.w3.org/2000/svg">
<path d="M7.78022 5.93999C8.25022 5.93999 8.71021 5.85999 9.15021 5.70999C9.28021 5.65999 9.40022 5.67999 9.50022 5.77999C9.60022 5.87999 9.61022 5.99999 9.56021 6.13999C8.90022 7.80999 7.69022 8.84999 5.92022 9.17999C3.90022 9.55999 1.88021 8.56999 0.900212 6.76999C-0.479788 4.22999 0.72021 1.04999 3.43021 0.0499936C3.56021 -6.4075e-06 3.69022 -6.4075e-06 3.80022 0.0999936C3.91022 0.209994 3.91022 0.329994 3.86022 0.469994C3.27022 2.22999 3.87022 4.09999 5.38022 5.18999C6.06022 5.67999 6.94022 5.95999 7.77022 5.94999L7.78022 5.93999Z" fill="white"/>
</svg>
