<svg width="40" height="40" viewBox="0 0 40 40" fill="none" xmlns="http://www.w3.org/2000/svg">
<circle cx="20" cy="20" r="20" fill="#55D6C0"/>
<g clip-path="url(#clip0_434_586)">
<path d="M9.77299 26.042C9.77299 26.0133 9.74697 23.137 9.76931 20.1308C9.81559 13.8792 10.0159 13.1771 10.1121 12.8397C10.359 11.9738 10.9203 11.3002 11.7348 10.892C12.6613 10.4276 13.8954 10.3247 15.4032 10.5862C16.3918 10.7576 17.1576 11.0254 17.2415 11.0555L16.7296 12.4225L16.2204 13.7904C15.2986 13.4655 13.7004 13.1777 13.0967 13.4817C13.0318 13.5143 13.0115 13.5323 12.9876 13.6133C12.9526 13.7647 12.7902 14.7605 12.7512 20.2486C12.7305 23.1957 12.7555 25.9881 12.7557 26.0158L9.77299 26.042Z" fill="white"/>
<path d="M15.1143 15.421H7.96362V18.0372H15.1143V15.421Z" fill="white"/>
<path d="M23.2619 26.0289H20.6023L25.214 19.3244H27.8736L23.2619 26.0289Z" fill="white"/>
<path d="M25.214 26.0289H27.8736L23.2619 19.3244H20.6023L25.214 26.0289Z" fill="white"/>
<path d="M19.987 28.1622C19.2385 28.1622 18.4902 28.1622 17.7417 28.1622C15.8898 24.0348 15.8898 19.5489 17.7417 15.421C18.4902 15.421 19.2385 15.421 19.987 15.421C18.1351 19.5492 18.1351 24.0348 19.987 28.1622Z" fill="white"/>
<path d="M28.4888 28.1622C29.2373 28.1622 29.9855 28.1622 30.734 28.1622C32.586 24.0348 32.586 19.5489 30.734 15.421C29.9855 15.421 29.2373 15.421 28.4888 15.421C30.3407 19.5492 30.3407 24.0348 28.4888 28.1622Z" fill="white"/>
</g>
<defs>
<clipPath id="clip0_434_586">
<rect width="24.1594" height="17.7169" fill="white" transform="translate(7.96362 10.4453)"/>
</clipPath>
</defs>
</svg>
