<svg width="41" height="41" viewBox="0 0 41 41" fill="none" xmlns="http://www.w3.org/2000/svg">
<circle cx="20.5881" cy="20.0898" r="20" fill="#4AE4FF"/>
<path d="M23.0851 10.0898V10.3891C23.0851 11.7471 23.0838 13.1051 23.0851 14.4632C23.0864 15.4639 23.7139 16.0885 24.7176 16.0891C26.0769 16.0898 27.4354 16.0891 28.7946 16.0891C28.8827 16.0891 28.9701 16.0891 29.0875 16.0891V16.3682C29.0875 20.394 29.0875 24.4191 29.0875 28.445C29.0875 29.4653 28.4666 30.0892 27.4485 30.0892C22.8751 30.0898 18.3024 30.0898 13.7291 30.0892C12.7103 30.0892 12.0881 29.4659 12.0881 28.4469C12.0881 22.8766 12.0881 17.3057 12.0881 11.7347C12.0881 10.7144 12.7097 10.0905 13.7265 10.0898C16.7541 10.0898 19.781 10.0898 22.808 10.0898H23.0851ZM20.6009 18.09C19.2429 18.09 17.885 18.09 16.5265 18.09C16.4534 18.09 16.3797 18.0861 16.3073 18.0926C16.0412 18.1174 15.8534 18.3136 15.8449 18.5698C15.8364 18.8332 16.0034 19.036 16.2708 19.0764C16.3667 19.0907 16.4652 19.0907 16.5623 19.0907C19.2462 19.0914 21.9294 19.0914 24.6133 19.0907C24.7189 19.0907 24.8259 19.0907 24.929 19.0725C25.1814 19.0281 25.3399 18.8254 25.332 18.5711C25.3229 18.2719 25.107 18.0906 24.7483 18.09C23.3656 18.0887 21.9835 18.09 20.6009 18.09ZM20.5767 22.0891C21.9431 22.0891 23.3089 22.0891 24.6752 22.0891C24.7483 22.0891 24.8226 22.093 24.8944 22.0838C25.1468 22.0506 25.3242 21.8544 25.3314 21.6066C25.3392 21.3432 25.1716 21.1411 24.9042 21.1013C24.8083 21.087 24.7098 21.0877 24.6126 21.0877C21.9288 21.087 19.2455 21.087 16.5617 21.0877C16.456 21.0877 16.3491 21.0877 16.246 21.1059C15.9943 21.1496 15.8364 21.3537 15.8449 21.6079C15.8547 21.9065 16.0719 22.0878 16.4299 22.0878C17.8126 22.0891 19.1947 22.0878 20.5774 22.0878L20.5767 22.0891ZM20.6145 24.0906C19.2482 24.0906 17.8824 24.0906 16.516 24.0906C16.443 24.0906 16.3693 24.0866 16.2969 24.0938C16.0334 24.1192 15.8482 24.32 15.8449 24.5795C15.841 24.8429 16.0164 25.0457 16.2812 25.0763C16.3699 25.0867 16.4599 25.0848 16.5493 25.0848C19.241 25.0848 21.9327 25.0848 24.6244 25.0848C24.7137 25.0848 24.8037 25.0867 24.8924 25.077C25.1677 25.0463 25.3457 24.8338 25.3327 24.5593C25.319 24.2679 25.109 24.0919 24.7633 24.0912C23.3806 24.0899 21.9986 24.0912 20.6159 24.0906H20.6145ZM18.5842 15.0962C17.8439 15.0962 17.1043 15.0916 16.3641 15.0982C16.0445 15.1008 15.8449 15.3009 15.8436 15.5884C15.8423 15.8772 16.0458 16.0859 16.3575 16.0865C17.8459 16.0904 19.3336 16.0885 20.822 16.0878C21.0261 16.0878 21.1826 16.0005 21.2779 15.8166C21.4553 15.473 21.2192 15.1027 20.8037 15.0975C20.0641 15.0884 19.3238 15.0949 18.5835 15.0955L18.5842 15.0962Z" fill="white"/>
<path d="M24.1033 10.4902C25.632 12.0178 27.1667 13.5512 28.7007 15.0839C28.6459 15.0865 28.5677 15.0943 28.4901 15.0943C27.2456 15.095 26.0019 15.0956 24.7574 15.0943C24.2526 15.0943 24.0935 14.9385 24.0928 14.4456C24.0922 13.1861 24.0928 11.9265 24.0928 10.6669C24.0928 10.5972 24.1006 10.528 24.1026 10.4902H24.1033Z" fill="white"/>
</svg>
