<svg width="46" height="45" viewBox="0 0 46 45" fill="none" xmlns="http://www.w3.org/2000/svg">
<circle cx="23.1748" cy="22.5" r="22.5" fill="#FFCC20"/>
<g clip-path="url(#clip0_21_2053)">
<path d="M27.2407 27.1896C24.5405 28.3982 21.8499 28.399 19.1524 27.1896C19.0927 27.3122 19.0371 27.4213 18.9863 27.5329C17.9814 29.7222 16.9785 31.9132 15.9715 34.1018C15.6216 34.8619 15.0106 35.2684 14.3617 35.1893C13.1655 35.043 12.5139 33.639 13.0727 32.3798C13.7216 30.9182 14.3881 29.4675 15.0466 28.0122C15.4331 27.1579 15.8135 26.2998 16.2102 25.4526C16.2977 25.2652 16.2766 25.1719 16.141 25.0382C15.0106 23.9182 14.123 22.5744 13.4727 21.0209C13.1038 20.1398 13.3398 19.1187 14.0206 18.5871C14.6729 18.0778 15.5667 18.1948 16.101 18.8798C16.2407 19.0586 16.3472 19.2792 16.4455 19.4952C16.8198 20.3193 17.2755 21.07 17.8769 21.7573C18.5767 20.2141 19.265 18.6963 19.9641 17.1555C20.6408 18.3499 21.5732 19.0293 22.7938 19.2334C22.0919 20.7639 21.4023 22.2698 20.6978 23.8075C22.37 24.4695 24.0123 24.4608 25.6933 23.8122C24.9921 22.2817 24.3005 20.7733 23.6393 19.3299C24.1723 19.072 24.7141 18.8569 25.2166 18.5531C25.7238 18.2462 26.0961 17.7361 26.4243 17.1539C27.1241 18.6971 27.8096 20.2102 28.5243 21.7866C28.8017 21.3974 29.0763 21.0628 29.2994 20.6871C29.5726 20.226 29.8079 19.734 30.0493 19.2492C30.4338 18.4764 31.1919 18.1031 31.9168 18.3427C32.6274 18.5777 33.1333 19.3654 33.0824 20.2323C33.0648 20.5376 32.98 20.8548 32.8634 21.1309C32.2274 22.6361 31.3567 23.9348 30.2629 25.0255C30.1104 25.1782 30.1009 25.2834 30.1938 25.4867C31.2346 27.7654 32.2687 30.0481 33.2974 32.3348C33.8188 33.4935 33.3544 34.7867 32.3087 35.1237C31.5588 35.3649 30.8142 34.9694 30.4189 34.1097C29.4804 32.069 28.5453 30.026 27.6089 27.9837C27.4895 27.7243 27.3682 27.4664 27.2407 27.192V27.1896Z" fill="white"/>
<path d="M22.1201 10.3683C22.1201 10.1413 22.1113 9.9143 22.1215 9.68809C22.1527 9.02843 22.6253 8.51431 23.1929 8.51352C23.7611 8.51273 24.2398 9.02369 24.2663 9.68414C24.2832 10.1168 24.2826 10.5518 24.2697 10.9853C24.2636 11.187 24.3273 11.2732 24.4806 11.3546C25.6265 11.9668 26.3012 13.0125 26.424 14.471C26.5447 15.8955 26.0693 17.0606 25.0813 17.9093C23.5882 19.1922 21.4434 18.6908 20.4446 16.8447C19.4491 15.0057 19.9862 12.5142 21.64 11.5255C22.0435 11.2842 22.1845 11.0248 22.1174 10.5455C22.1093 10.4877 22.116 10.4276 22.116 10.3683C22.1174 10.3683 22.1188 10.3683 22.1201 10.3683Z" fill="white"/>
<path d="M14.6162 32.8078L15.3872 33.3155L14.1117 34.9006L12.8369 36.4865L13.3407 34.3936L13.8446 32.3008L14.6162 32.8078Z" fill="white"/>
<path d="M31.6804 32.7793L32.4535 32.2762L32.9491 34.3722L33.4442 36.4675L32.1754 34.8753L30.9067 33.2831L31.6804 32.7793Z" fill="white"/>
</g>
<defs>
<clipPath id="clip0_21_2053">
<rect width="20.6757" height="27.973" fill="white" transform="translate(12.8369 8.51352)"/>
</clipPath>
</defs>
</svg>
