<svg width="22" height="30" viewBox="0 0 22 30" fill="none" xmlns="http://www.w3.org/2000/svg">
<g id="Layer_1" clip-path="url(#clip0_49_2418)">
<path id="Vector" d="M15.4322 0.578796C15.5903 0.702916 15.7648 0.809304 15.9037 0.953283C17.7303 2.83848 19.5494 4.73077 21.3773 6.61384C21.6128 6.85641 21.7236 7.11529 21.7229 7.46424C21.7161 13.9766 21.7188 20.4897 21.7175 27.0021C21.7175 28.2582 21.0742 29.1774 19.9648 29.4894C19.7396 29.5526 19.4974 29.5752 19.2626 29.5752C13.9067 29.5802 8.55013 29.5802 3.19422 29.5781C1.72214 29.5781 0.727741 28.544 0.727741 27.0148C0.727056 19.0577 0.732531 11.1006 0.723634 3.14417C0.722266 1.79162 1.59416 0.771714 2.73159 0.61355C2.75691 0.610004 2.78086 0.590854 2.8055 0.578796C7.0144 0.578796 11.224 0.578796 15.4329 0.578796H15.4322ZM14.7218 1.78311C14.5904 1.78311 14.5001 1.78311 14.4104 1.78311C10.6943 1.78311 6.97744 1.78311 3.26129 1.78311C2.34218 1.78311 1.89049 2.25618 1.89049 3.21651C1.89049 11.1261 1.89049 19.035 1.89049 26.9446C1.89049 27.9035 2.34218 28.3738 3.26471 28.3738C8.56587 28.3738 13.8677 28.3738 19.1689 28.3738C20.1085 28.3738 20.5561 27.9078 20.5561 26.929C20.5561 20.6713 20.5561 14.4142 20.5561 8.15647C20.5561 8.05576 20.5561 7.95433 20.5561 7.82809C20.4247 7.82809 20.3268 7.82809 20.2283 7.82809C19.1901 7.82809 18.1512 7.8366 17.113 7.82596C15.734 7.81106 14.7444 6.78335 14.7225 5.35563C14.7163 4.94993 14.7211 4.54424 14.7211 4.13784C14.7211 3.36546 14.7211 2.59308 14.7211 1.7824L14.7218 1.78311ZM19.6055 6.61455C18.3695 5.33364 17.126 4.04563 15.9003 2.77536C15.9003 3.65696 15.8709 4.58821 15.9106 5.51663C15.9379 6.15708 16.3664 6.5798 16.998 6.60604C17.8775 6.64221 18.7596 6.61526 19.6062 6.61526L19.6055 6.61455Z" fill="#EE0202"/>
<path id="Vector_2" d="M12.4045 12.4574C12.4011 13.2127 12.1465 13.9057 11.9583 14.6128C11.9247 14.7398 11.898 14.8731 11.8406 14.9887C11.5778 15.5178 11.6667 15.937 12.1136 16.3349C12.7823 16.9307 13.4057 17.5789 14.062 18.1903C14.1442 18.2669 14.3077 18.2818 14.4309 18.274C15.1283 18.2328 15.8243 18.1513 16.5224 18.1371C16.8221 18.1314 17.1397 18.2151 17.423 18.33C18.0259 18.5747 18.2579 19.0074 18.2148 19.6889C18.1737 20.3443 17.8275 20.7996 17.2649 21.0018C16.5237 21.2678 15.89 21.016 15.2857 20.6025C14.8682 20.3166 14.4651 20.0088 14.047 19.7237C13.9594 19.6641 13.8232 19.6145 13.7294 19.64C12.5249 19.9627 11.3225 20.2939 10.1248 20.6429C9.99001 20.6819 9.84629 20.8216 9.77854 20.9535C9.17492 22.1288 8.46933 23.2217 7.45509 24.0629C6.846 24.5686 6.18147 24.9204 5.3657 24.6495C4.8401 24.475 4.39868 24.1899 4.26454 23.5863C4.12767 22.9714 4.38294 22.4792 4.82505 22.1181C5.2432 21.7763 5.70173 21.4749 6.17463 21.2202C7.04515 20.7507 7.94237 20.333 8.82042 19.8783C8.9436 19.8145 9.0709 19.6804 9.11607 19.5485C9.50958 18.4144 9.88873 17.2746 10.259 16.132C10.2884 16.0405 10.2364 15.9008 10.1844 15.8051C9.8374 15.1667 9.43772 14.5554 9.1366 13.895C8.77936 13.112 8.82795 12.2716 9.06474 11.4602C9.3378 10.524 10.1098 10.102 11.0864 10.2778C11.7564 10.3984 12.1225 10.8261 12.2635 11.4829C12.3326 11.8027 12.3593 12.1333 12.4052 12.4588L12.4045 12.4574ZM10.762 14.5277C10.8845 14.0986 11.0337 13.7184 11.0953 13.3234C11.1651 12.873 11.1877 12.4085 11.1733 11.9524C11.1603 11.5332 10.9803 11.4176 10.5765 11.4573C10.2809 11.4864 10.1905 11.7105 10.1324 11.9559C9.90789 12.9035 10.2295 13.7135 10.762 14.5277ZM10.5129 19.196C11.2575 18.9925 11.9596 18.8003 12.5407 18.6414C12.1088 18.1584 11.6482 17.6442 11.1801 17.1207C10.9618 17.8002 10.7442 18.4768 10.5129 19.1967V19.196ZM7.98274 21.7011C7.96564 21.677 7.94853 21.6536 7.93142 21.6295C7.22993 22.0231 6.52708 22.4125 5.82971 22.8139C5.71336 22.8806 5.61276 22.9863 5.52242 23.0905C5.35475 23.2849 5.37597 23.3664 5.60181 23.4601C5.87487 23.5735 6.13288 23.5402 6.38268 23.3778C7.04378 22.9473 7.5338 22.3458 7.98274 21.7011ZM15.6381 19.2946C15.6306 19.3258 15.6231 19.357 15.6156 19.3875C15.7908 19.5024 15.9564 19.6421 16.1446 19.7251C16.3376 19.8102 16.5511 19.8613 16.7605 19.8868C16.9193 19.9067 17.0664 19.8031 17.0363 19.6237C17.0206 19.5308 16.8871 19.4024 16.7934 19.3896C16.4108 19.3372 16.0234 19.323 15.6375 19.2946H15.6381Z" fill="#EE0202"/>
</g>
<defs>
<clipPath id="clip0_49_2418">
<rect width="21" height="29" fill="white" transform="translate(0.723633 0.578796)"/>
</clipPath>
</defs>
</svg>
