<svg width="41" height="41" viewBox="0 0 41 41" fill="none" xmlns="http://www.w3.org/2000/svg">
<circle cx="20.7581" cy="20.6021" r="20" fill="#FFAB9E"/>
<g clip-path="url(#clip0_21_1677)">
<path d="M21.1825 31.413H20.337C20.2288 31.3933 20.1206 31.3703 20.0092 31.3507C18.8195 31.1442 17.8526 30.538 17.0267 29.6794C16.1582 28.7717 15.5518 27.7001 15.0897 26.5433C15.0372 26.409 14.9553 26.3336 14.8242 26.2746C14.3752 26.0747 13.9229 25.8781 13.4935 25.6422C12.4742 25.0883 11.5762 24.3871 10.8978 23.4302C9.98991 22.1456 9.70149 20.7463 10.1669 19.2291C10.4914 18.1673 11.1469 17.3251 11.9761 16.6075C12.8249 15.8734 13.8016 15.3491 14.8308 14.9198C14.9324 14.8772 15.0307 14.7724 15.0799 14.6708C15.306 14.2251 15.4928 13.763 15.7288 13.3239C16.2827 12.3048 16.9874 11.4102 17.9444 10.7318C19.062 9.93879 20.2943 9.61765 21.6545 9.88309C22.7852 10.1059 23.7062 10.7056 24.4895 11.5281C25.3515 12.4293 25.9579 13.4943 26.42 14.6478C26.479 14.7953 26.5675 14.8838 26.715 14.9428C27.5933 15.2934 28.4225 15.7325 29.1764 16.3126C30.1301 17.0466 30.9003 17.9281 31.3002 19.0816C31.4214 19.4355 31.4804 19.8124 31.5656 20.1794V21.0249C31.546 21.133 31.523 21.2412 31.5034 21.3526C31.2969 22.5421 30.6906 23.5121 29.8319 24.3346C28.924 25.203 27.8522 25.8093 26.6953 26.2746C26.5609 26.3271 26.4823 26.409 26.4265 26.5433C26.0726 27.4281 25.6334 28.267 25.05 29.024C24.3158 29.9776 23.4342 30.751 22.2805 31.1508C21.9265 31.272 21.5496 31.331 21.1825 31.4162V31.413ZM24.814 20.6218C24.8042 19.4585 24.6895 18.305 24.4142 17.1711C24.3814 17.0335 24.3257 16.9712 24.188 16.9483C23.5161 16.8434 22.8475 16.6992 22.1723 16.6271C20.5369 16.4502 18.9145 16.5682 17.3118 16.9548C17.1873 16.9843 17.1348 17.0335 17.1152 17.1547C17.007 17.8331 16.8628 18.5081 16.7874 19.193C16.6104 20.8283 16.7284 22.4504 17.1152 24.0528C17.1447 24.1773 17.1938 24.2298 17.3151 24.2494C17.9935 24.3576 18.6687 24.5018 19.3537 24.5771C20.9892 24.7541 22.6115 24.6361 24.2142 24.2494C24.3388 24.2199 24.3814 24.1675 24.4109 24.0495C24.6895 22.9223 24.8042 21.7786 24.8173 20.6218H24.814ZM18.5442 13.9662C20.0256 13.8024 21.5005 13.8089 23.0212 13.9924C22.6804 13.5173 22.3264 13.147 21.8905 12.8684C21.3563 12.5243 20.7827 12.3802 20.1632 12.603C19.4619 12.8553 18.9637 13.36 18.5409 13.9695L18.5442 13.9662ZM14.1163 22.8403C14.0769 22.0833 14.0114 21.346 14.0114 20.612C14.0114 19.8714 14.0769 19.1308 14.1163 18.364C13.6246 18.7179 13.215 19.1177 12.9233 19.6387C12.566 20.281 12.566 20.9233 12.9233 21.5656C13.2084 22.0801 13.6214 22.4799 14.1163 22.8403ZM27.3934 18.3869C27.5573 19.8681 27.5474 21.3427 27.3672 22.86C27.8391 22.529 28.2029 22.1784 28.4815 21.7491C28.8289 21.2182 28.983 20.6447 28.7634 20.0254C28.5143 19.3143 28.0063 18.8096 27.3901 18.3869H27.3934ZM18.5507 27.2118C18.5442 27.2315 18.5376 27.2479 18.5278 27.2675C18.6589 27.4216 18.7769 27.5854 18.9211 27.7296C19.1046 27.9131 19.2947 28.0934 19.5045 28.2474C20.2714 28.8208 21.0252 28.8569 21.8413 28.3653C22.31 28.0835 22.6771 27.6968 23.0212 27.2053C21.4972 27.3954 20.0223 27.3954 18.5507 27.2118Z" fill="white"/>
<path d="M20.7728 17.8986C22.2575 17.9051 23.4669 19.1209 23.4636 20.6087C23.4603 22.103 22.2313 23.3155 20.74 23.3024C19.252 23.2892 18.0525 22.0702 18.0623 20.5824C18.0721 19.0947 19.2914 17.892 20.7761 17.8986H20.7728Z" fill="white"/>
</g>
<defs>
<clipPath id="clip0_21_1677">
<rect width="21.6216" height="21.6216" fill="white" transform="translate(9.94727 9.79126)"/>
</clipPath>
</defs>
</svg>
