<svg width="11" height="11" viewBox="0 0 11 11" fill="none" xmlns="http://www.w3.org/2000/svg">
<path d="M7.84985 5.67999C7.84985 7.19999 6.60985 8.43999 5.09985 8.43999C3.56985 8.43999 2.33984 7.19999 2.33984 5.66999C2.33984 4.15999 3.57985 2.91999 5.09985 2.92999C6.61985 2.92999 7.84985 4.16999 7.84985 5.68999V5.67999Z" fill="white"/>
<path d="M2.10998 8.13998C2.34998 8.14998 2.48998 8.22998 2.56998 8.39998C2.64998 8.56998 2.63997 8.73998 2.51997 8.87998C2.39997 9.01998 2.25998 9.15998 2.11998 9.27998C1.93998 9.42998 1.67998 9.40998 1.50998 9.24998C1.33998 9.07998 1.32998 8.80998 1.47998 8.63998C1.59998 8.49998 1.72998 8.36998 1.86998 8.25998C1.94998 8.19998 2.05998 8.16998 2.10998 8.14998V8.13998Z" fill="white"/>
<path d="M8.08005 8.14001C8.13005 8.17001 8.24005 8.20001 8.33005 8.27001C8.45005 8.37001 8.56004 8.49001 8.67004 8.60001C8.85004 8.79001 8.84004 9.06 8.67004 9.24C8.49004 9.42 8.22005 9.42 8.03005 9.24C7.91005 9.13 7.80005 9.02 7.69005 8.9C7.56005 8.75 7.53005 8.58 7.61005 8.4C7.69005 8.22 7.84004 8.14 8.09004 8.13L8.08005 8.14001Z" fill="white"/>
<path d="M8.79969 2.48998C8.76969 2.54998 8.72969 2.65998 8.65969 2.74998C8.56969 2.86998 8.44968 2.96998 8.33968 3.06998C8.14968 3.24998 7.86969 3.24998 7.68969 3.06998C7.50969 2.88998 7.50969 2.60998 7.68969 2.41998C7.79969 2.29998 7.90968 2.18998 8.02968 2.08998C8.17968 1.95998 8.34968 1.92998 8.52968 2.00998C8.70968 2.08998 8.78968 2.23998 8.80968 2.47998L8.79969 2.48998Z" fill="white"/>
<path d="M9.45001 6.13C9.36001 6.13 9.28002 6.13 9.19002 6.13C8.95002 6.12 8.77002 5.92 8.77002 5.68C8.77002 5.44 8.95002 5.23 9.19002 5.22C9.37002 5.22 9.54002 5.22 9.72002 5.22C9.96002 5.22 10.15 5.43 10.15 5.67C10.15 5.91 9.96002 6.11 9.72002 6.13C9.63002 6.13 9.54001 6.13 9.45001 6.13Z" fill="white"/>
<path d="M4.64014 10.03C4.64014 9.95001 4.64014 9.87001 4.64014 9.78001C4.65014 9.53001 4.85014 9.35001 5.10014 9.35001C5.34014 9.35001 5.54014 9.53001 5.55014 9.78001C5.55014 9.95001 5.55014 10.12 5.55014 10.3C5.55014 10.55 5.34013 10.74 5.09013 10.73C4.85013 10.73 4.65014 10.54 4.64014 10.29C4.64014 10.2 4.64014 10.12 4.64014 10.03Z" fill="white"/>
<path d="M5.55014 1.31C5.55014 1.39 5.55014 1.47 5.55014 1.56C5.54014 1.81 5.34014 2 5.10014 2C4.85014 2 4.65014 1.82 4.64014 1.57C4.64014 1.4 4.64014 1.23 4.64014 1.05C4.64014 0.809995 4.85013 0.619995 5.09013 0.619995C5.33013 0.619995 5.53014 0.809995 5.55014 1.04C5.55014 1.13 5.55014 1.22 5.55014 1.31Z" fill="white"/>
<path d="M0.739907 6.13C0.649907 6.13 0.559911 6.13 0.469911 6.13C0.229911 6.12 0.0299103 5.91 0.0399103 5.67C0.0399103 5.43 0.229911 5.23 0.469911 5.22C0.639911 5.22 0.809907 5.22 0.989907 5.22C1.22991 5.22 1.41991 5.43 1.41991 5.67C1.41991 5.92 1.23991 6.12 0.989907 6.13C0.909907 6.13 0.829907 6.13 0.739907 6.13Z" fill="white"/>
<path d="M2.64988 2.72999C2.61988 2.92999 2.53988 3.06999 2.36988 3.15999C2.19988 3.23999 2.01988 3.22999 1.87988 3.09999C1.74988 2.98999 1.61988 2.85999 1.50988 2.72999C1.34988 2.54999 1.36988 2.27999 1.52988 2.11999C1.69988 1.94999 1.95988 1.92999 2.13988 2.08999C2.27988 2.20999 2.39988 2.32999 2.51988 2.46999C2.57988 2.54999 2.60988 2.64999 2.64988 2.73999V2.72999Z" fill="white"/>
</svg>
