<svg width="21" height="20" viewBox="0 0 21 20" fill="none" xmlns="http://www.w3.org/2000/svg">
<path fill-rule="evenodd" clip-rule="evenodd" d="M5.21155 10.8102C5.21155 11.0577 5.00939 11.2602 4.76178 11.2602H3.90255C3.65493 11.2602 3.45213 11.058 3.45213 10.8102V10.0177C3.45213 9.77024 3.65461 9.56776 3.90255 9.56776H4.76178C5.00939 9.56776 5.21155 9.76993 5.21155 10.0177V10.8102ZM5.21155 12.8589C5.21155 12.6115 5.00939 12.409 4.76178 12.409H3.90255C3.65493 12.409 3.45213 12.6115 3.45213 12.8589V13.6515C3.45213 13.8989 3.65461 14.1014 3.90255 14.1014H4.76178C5.00939 14.1014 5.21155 13.8989 5.21155 13.6515V12.8589ZM5.21155 15.6995C5.21155 15.4524 5.00939 15.2499 4.76178 15.2499H3.90255C3.65493 15.2499 3.45213 15.4521 3.45213 15.6995V16.4924C3.45213 16.7398 3.65461 16.9423 3.90255 16.9423H4.76178C5.00939 16.9423 5.21155 16.7398 5.21155 16.4924V15.6995ZM8.16582 10.0177C8.16582 9.77024 7.96334 9.56776 7.71605 9.56776H6.85682C6.60953 9.56776 6.40641 9.76993 6.40641 10.0177V10.8102C6.40641 11.0577 6.60953 11.2602 6.85682 11.2602H7.71605C7.96334 11.2602 8.16582 11.058 8.16582 10.8102V10.0177ZM8.16582 12.8589C8.16582 12.6115 7.96334 12.409 7.71605 12.409H6.85682C6.60953 12.409 6.40641 12.6115 6.40641 12.8589V13.6515C6.40641 13.8989 6.60953 14.1014 6.85682 14.1014H7.71605C7.96334 14.1014 8.16582 13.8989 8.16582 13.6515V12.8589ZM8.16582 15.6995C8.16582 15.4524 7.96334 15.2499 7.71605 15.2499H6.85682C6.60953 15.2499 6.40641 15.4521 6.40641 15.6995V16.4924C6.40641 16.7398 6.60953 16.9423 6.85682 16.9423H7.71605C7.96334 16.9423 8.16582 16.7398 8.16582 16.4924V15.6995ZM11.1198 10.0177C11.1198 9.77024 10.9173 9.56776 10.6694 9.56776H9.81046C9.56285 9.56776 9.36005 9.76993 9.36005 10.0177V10.8102C9.36005 11.0577 9.56253 11.2602 9.81046 11.2602H10.6694C10.917 11.2602 11.1198 11.058 11.1198 10.8102V10.0177ZM11.1198 12.8589C11.1198 12.6115 10.9173 12.409 10.6694 12.409H9.81046C9.56285 12.409 9.36005 12.6115 9.36005 12.8589V13.6515C9.36005 13.8989 9.56253 14.1014 9.81046 14.1014H10.6694C10.917 14.1014 11.1198 13.8989 11.1198 13.6515V12.8589ZM11.1198 15.6995C11.1198 15.4524 10.9173 15.2499 10.6694 15.2499H9.81046C9.56285 15.2499 9.36005 15.4521 9.36005 15.6995V16.4924C9.36005 16.7398 9.56253 16.9423 9.81046 16.9423H10.6694C10.917 16.9423 11.1198 16.7398 11.1198 16.4924V15.6995ZM14.0741 10.0177C14.0741 9.77024 13.8716 9.56776 13.6243 9.56776H12.7647C12.5171 9.56776 12.3143 9.76993 12.3143 10.0177V10.8102C12.3143 11.0577 12.5168 11.2602 12.7647 11.2602H13.624C13.8713 11.2602 14.0737 11.058 14.0737 10.8102L14.0741 10.0177ZM14.0741 12.8589C14.0741 12.6115 13.8716 12.409 13.6243 12.409H12.7647C12.5171 12.409 12.3143 12.6115 12.3143 12.8589V13.6515C12.3143 13.8989 12.5168 14.1014 12.7647 14.1014H13.624C13.8713 14.1014 14.0737 13.8989 14.0737 13.6515L14.0741 12.8589ZM14.0741 15.6995C14.0741 15.4524 13.8716 15.2499 13.6243 15.2499H12.7647C12.5171 15.2499 12.3143 15.4521 12.3143 15.6995V16.4924C12.3143 16.7398 12.5168 16.9423 12.7647 16.9423H13.624C13.8713 16.9423 14.0737 16.7398 14.0737 16.4924L14.0741 15.6995ZM17.028 10.0177C17.028 9.77024 16.8256 9.56776 16.5776 9.56776H15.7187C15.4711 9.56776 15.2683 9.76993 15.2683 10.0177V10.8102C15.2683 11.0577 15.4708 11.2602 15.7187 11.2602H16.5776C16.8252 11.2602 17.028 11.058 17.028 10.8102V10.0177ZM17.028 12.8589C17.028 12.6115 16.8256 12.409 16.5776 12.409H15.7187C15.4711 12.409 15.2683 12.6115 15.2683 12.8589V13.6515C15.2683 13.8989 15.4708 14.1014 15.7187 14.1014H16.5776C16.8252 14.1014 17.028 13.8989 17.028 13.6515V12.8589ZM20.2402 3.37333V18.5414C20.2402 19.3457 19.5599 20 18.7233 20H1.75719C0.920851 20 0.240234 19.3457 0.240234 18.5414V3.37333C0.240234 2.56899 0.920851 1.91473 1.75719 1.91473H3.78486V0.542636C3.78486 0.243101 4.03763 0 4.34908 0C4.66053 0 4.91331 0.243101 4.91331 0.542636V1.91473H15.5668V0.542636C15.5668 0.243101 15.8193 0 16.1311 0C16.4428 0 16.6953 0.243101 16.6953 0.542636V1.91473H18.723C19.5596 1.91473 20.2402 2.56899 20.2402 3.37333ZM1.36868 3.37334V6.48775H19.1115V3.37334C19.1115 3.17116 18.9335 3 18.7229 3H16.6953V4.20682C16.6953 4.50636 16.4428 4.74946 16.1311 4.74946C15.8193 4.74946 15.5668 4.50636 15.5668 4.20682V3H4.9133V4.20682C4.9133 4.50636 4.66053 4.74946 4.34908 4.74946C4.03762 4.74946 3.78485 4.50636 3.78485 4.20682V3H1.75719C1.54665 3 1.36868 3.17116 1.36868 3.37334ZM19.1118 18.5414V7.57302H1.36868V18.5414C1.36868 18.7436 1.54665 18.9147 1.75719 18.9147H18.7229C18.9338 18.9147 19.1118 18.7436 19.1118 18.5414Z" fill="#15414E"/>
</svg>
